<?xml version="1.0" encoding="utf-8"?>
<!-- Generator: Adobe Illustrator 21.0.0, SVG Export Plug-In . SVG Version: 6.00 Build 0)  -->
<svg version="1.1" id="Layer_1" xmlns="http://www.w3.org/2000/svg" xmlns:xlink="http://www.w3.org/1999/xlink" x="0px" y="0px"
	 viewBox="0 0 166.7 122.7" style="enable-background:new 0 0 166.7 122.7;" xml:space="preserve">
<style type="text/css">
	.st0{clip-path:url(#SVGID_2_);}
	.st1{fill:#FFFFFF;}
	.st2{fill:#0070B9;}
	.st3{fill-rule:evenodd;clip-rule:evenodd;fill:#0070B9;}
	.st4{fill-rule:evenodd;clip-rule:evenodd;fill:#FFFFFF;}
	.st5{fill:#FFD200;}
	.st6{fill:#E03127;}
</style>
<g>
	<defs>
		<rect id="SVGID_1_" y="-11.5" width="166.7" height="134.1"/>
	</defs>
	<clipPath id="SVGID_2_">
		<use xlink:href="#SVGID_1_"  style="overflow:visible;"/>
	</clipPath>
	<g class="st0">
		<rect x="23.4" y="122.4" class="st1" width="122.9" height="132.3"/>
		<path class="st2" d="M147.1,255.5H23V0h124.1V255.5z M24.7,253.9h120.8V1.6H24.7V253.9z"/>
		<polygon class="st3" points="147,122.7 23,122.7 23,0.7 146.9,0.7 		"/>
		<path class="st4" d="M107,129.3c-0.1-2,0.1-2.6,0.5-4.4c0.7-3,1.7-5.8,3.8-7.3c1.4-0.3,2.1-1.2,2.9-1.9c0.3-1.1-0.3-2.2-0.1-3.2
			c0.2-1,2.1-2.6,3.2-3.7c1.2-1.3,2.2-2.8,3-3.9c2.3-2.8,5.2-4.9,6.5-7.5c0.5-0.9,1.1-2.4,1.1-3.4c0.2-5.5-6.8-19.7-7.5-21.8
			c-0.8-2.2-2.2-5-1.9-7.3c0.2-1.7-0.9-5.1-2-6.4c-0.5-0.5-1,0.1-1.3,0c0,0-0.4-0.6-0.8-0.7c-0.6-0.1-1.1,0.3-1.1,0.3
			s-0.3-0.5-1-0.5c-0.7,0-1,0.9-1,0.9s-0.6-0.1-1,0.1c-0.4,0.2-0.4,1.1-0.4,1.1s-0.7,2.7-0.6,2.9c0.2,0.9,0.5,1.6,1.2,2.2
			c1.5,1.5,1.8,2.1,3.2,3.7c2.2,2.4,3.6,21,4.9,25c-3.2,3.2-7.4,5.6-9.1,10.2c-3.8,0.9-7.2,2-10,4c-0.7,0.5-1.4,1.4-2,1.5
			c-0.5,0.1-1-0.1-1.4-0.2c-0.7,0-1,0.4-1.4,0c-1.3-2.2,0.3-5.5,0.1-7.5c0.4-0.5,1-0.8,1.4-1.2c1.6-3.3,1-8.3-0.9-11.2
			c-0.9-1.4-2.7-3-3.6-3.3c-1.9-0.6-4.8-0.5-6.4-0.2c-1.2,0.2-2.8,1.2-3.9,1.8c-1.6,0.9-3.2,2.9-3.3,4.6c-0.1,1.2,0.3,3.9,0.7,5.5
			c0.1,0.5,0.7,0.8,1,1.6c0.6,1.4,0.2,2.9,1.8,3.3c0.1,2.8,1.8,2.2,0.5,4.8c-0.6,0.6-0.8-0.2-1.4,0c-0.8,0.2-1.1-1-3-3.9
			c-1.9-2.8-2.3-0.6-4.2-7.1c-1.8-6.3-4.8-12-4.7-13.7c0-1.3,0-4.1-1.1-12.7c-0.8-5.9-1.6-10.8,0.1-12.8c1.1-1.2,0-1.5,0.1-2.1
			c0.1-0.9,0-1.7-0.2-2.6c-0.1-0.4-0.2-0.8-0.3-1.1c-0.2-0.4-0.2-1.1-0.5-1.4c-0.6-0.7-1-0.2-1.3-0.3c-0.2-0.2-0.5-0.4-0.8-0.5
			c-0.3,0-0.9,0.1-1.1,0.4c-0.1-0.1-0.6-0.4-1.1-0.3c-0.4,0-0.8,0.4-0.9,0.4c-0.3,0-0.7-0.1-0.9,0c-1,0.5-1.9,2.4-1.2,5.1
			c1,3.6,1.7,3.5,1.6,6.5c-0.6,14.5-0.9,17.8,0.1,22c1.1,4.5,2.7,16.4,3.6,21.1c0.1,0.8,0.5,1.1,0.6,2c0.8,4.8,2.2,11.4,2.8,13.7
			c0.2,0.9,2.1,11.1,2.3,12.8L107,129.3z"/>
		<path class="st5" d="M156,36.3c-4.5-5.7-14.6-12.2-24.3-12.2c-9.8,0-21.1,3.1-29.1,14.8c-3.6-1.3-9.7-4.6-9.7-4.6l0.2-16.2
			c0,0,2.1-0.3,4-0.6c6.2-1,6.3-6.2,5.9-8.5c-0.4-2.3-3-4.6-6.3-2.7c-3.2,1.9-5.4,2.7-6.8,3.1c-1.9,0.6-4.2,0.4-6.1,0.8
			c-2.3,0.5-5.5,2.5-5.3,3.7c0.2,1.3,11.8,3.3,11.8,3.3l-0.9,15.1c0,0-44.7,0.7-49.4,0.6c-0.3-0.3,2.9-16.2,2.9-16.2
			s0.8-0.6,1.2-1.7c0.3-0.9,0.2-2,0.2-2s6.4,0.3,7.3,0.8c0.5,0.3-0.5,1.1-0.7,3.2c-0.3,2.4,0,5.8,0.9,7c1.7,2.2,4.7,2.9,10.2,3.7
			c2.1,0.3,2.2-2.4,0.9-2.8c-1.4-0.4-5.6-0.4-7.6-1.4c-2.1-1-1.9-4.6-1.3-7.4c0.4-1.8,3.1-1.2,2.8-3.9c-0.2-1.7-4.5-1.7-13.9-2.3
			c-0.5,0,0-2.2-3.2-1.7C39,8.5,38.9,9.8,38,9.7c-3.6-0.3-11.1,0-13.4,0c-0.5,0-3.8-0.9-5.7-0.2c-1.6,0.6-2.4,3.1-2.5,6.3
			c-0.1,2.6,0.3,7.4,2.1,8.5c3.5,2.1,4.5,3.9,7.4,4.5c3,0.6,3.1-2,1.2-2.9c-1.5-0.7-3.3-1.2-6.5-3.9c-0.8-0.7-1.4-3.6-1.3-5.7
			c0.2-2.1,0.4-4.5,2.1-3.9c0.8,0.3,3,1,5.4,1c4.3,0,8.8-0.5,9.4-0.5c1.4,0.1,1.6-0.5,2.4,1.1c0.7,1.4,0.9,1,1.3,2.5
			c0.3,1.4-5.1,24.4-5.1,24.4s-1.6,1.6-2.7,3.2c-1,1.3-1.9,4.1-2,5.9c-3.6,0.8-6.4,1.8-8.8,3.3C15.6,56.7,6.7,63.4,4.2,82.3
			C2,98.4,12,113.6,27.2,115.4c15.3,1.8,30.4-12.9,31.7-34.5C59.5,70.7,55,62,49.2,57c-4.5-3.9-7.5-5.4-7.5-5.4
			c0-0.7,0.5-2.4,0.4-4.6c-0.1-2.3-0.8-3.8-0.4-4.5c0.4-0.7,41,25,41.4,25.9c-1.3,2.1-3.9,2.6-6.9,2.6c-0.2-1.1,0.7-3.3-0.6-2.6
			c-1.9,1.1-5.7,7.3-4.8,8.2c0.9,0.9,4.6-3.1,4.6-3.1s8.1-0.8,8.5-0.1c1.2,2.2,4.7,4.4,8.4,3.5c3.7-0.8,4.6-3,5.7-4.6
			c0.7,0.1,3.3-0.6,3.3-0.6s3,4.3,6.5,7.4c3.4,3.1,13.3,9.5,24.9,9.8c11.6,0.3,20.7-7.3,24.6-13c3.9-5.7,6.1-11.3,6.1-18.6
			C163.3,49.9,160.6,41.9,156,36.3 M32.9,56.1c0.8-0.1,3-0.2,3.8,0.4c-0.2,3.2-1.4,8-2.1,12.1c-0.7,4.1-1.1,8.8-1.9,12.1
			c-0.2,0.9-4.7,1.9-4.2,0.2C29,79,31.4,63.7,32.9,56.1 M48.7,64.5c4.3,5.8,6.3,17.3,1,29.6c-5.3,12.3-15.5,16.9-26.4,14.3
			c-8.5-2-16.1-13.4-14.4-26.1c1.5-10.6,5.6-16.8,10.5-21.2c4.1-3.8,9.4-4.9,9.4-4.9c0,0-2.3,15-3,20.6c-0.7,5.7-1.4,8.3,0.3,8.4
			c2.3,0.1,6.7-0.8,8.2-1.2c0.8-0.2,1.4-4.9,1.9-7.8c0.6-3.4,1.3-6.9,1.9-10c0.6-3.5,0.7-6.5,1.9-8.9C41.1,57.8,44.4,58.6,48.7,64.5
			 M88.7,63.2c-0.9,0.3-1.8,0.7-2.6,1.1C83.7,63.2,43.2,38,42.2,37c12.7-0.3,45.4-2.1,45.4-0.4c0,1,0.3,2.1,0.5,3
			c0.4,2,1.2,2.6,1.2,2.6S89.5,57.4,88.7,63.2 M98.7,51.9c-0.6,5.3,0.2,11.7,0.2,12c0,0.9-1.8,1.5-3.3,0.5c-1.9-1.3-3.5-1.4-3.5-1.4
			l0.1-20.3c0,0,1.1-0.6,1.5-2.3c0.3-1.3,0.3-2.5,0.3-2.5l7.5,3.7C101.4,41.6,99.3,46.7,98.7,51.9 M104.7,63.1
			c-2.3-4.2-0.7-13.3,1.1-17.7c0-0.1,14.1,6.4,20.1,10.6C124.8,57,107.4,62.9,104.7,63.1 M157.7,59.2c-1.8,15.2-13.2,25.2-28.8,23.4
			c-15.6-1.8-22.4-15-22.3-15.4c0.3-1.3,18.7-6.8,19.4-6.7c0.7,0.1,1.6,1.1,1.6,1.6c0.1,1.4-2.2,1.8-1.1,3.8c1.8,1.1,4.1,1.8,6,2.9
			c0.2,0.6-0.2,1-0.4,1.5c0.8,1.9,4,2.2,4.3,0.2c0.5-2.8-3.5-3.4-4.9-4.9c0.6-1.9,2.8-2.2,3.9-3.5c1.3-1.5,1.8-3.4,0.9-5.4
			c-2.2-4.5-27.1-15.6-27.3-16.6c-0.2-0.9,8.5-11.9,24.5-10.1C149.5,31.9,159.4,44,157.7,59.2"/>
		<path class="st4" d="M62.2,49.5c0.1,0.2,0,0.6-0.3,0.7c-0.3,0.1-0.6,0-0.9-0.3l-0.5-0.7c-0.1-0.2,0-0.5,0.3-0.7
			c0.4-0.3,0.7-0.1,0.8,0.2L62.2,49.5z"/>
		<path class="st4" d="M64.3,50.6c0.2,0.4,0,0.9-0.4,1c-0.4,0.1-0.8-0.2-1.1-0.7l-0.6-1.2c-0.2-0.4-0.1-0.7,0.4-1
			c0.5-0.3,0.9,0,1,0.4L64.3,50.6z"/>
		<path class="st4" d="M65.6,52.1c0,0.4-0.3,0.9-0.7,0.9c-0.5,0-0.8-0.4-0.9-1l-0.2-1.4c0-0.5,0.2-0.8,0.7-0.9
			c0.6-0.2,0.8,0.3,0.9,0.7L65.6,52.1z"/>
		<path class="st4" d="M66.9,52c0,0.4-0.2,0.8-0.7,0.8c-0.4,0-0.7-0.4-0.8-0.9l-0.2-1.2c0-0.4,0.2-0.7,0.7-0.8
			c0.5-0.1,0.8,0.3,0.8,0.7L66.9,52z"/>
		<path class="st4" d="M67.1,52.9c-0.2-1.3,0.5-2.4,1.1-2.7c1.2-0.6,0.4,2.3,0.9,3.5l-0.6,2.8c-0.2,0.7-1.1,2.4-1.9,2.3
			c-0.8-0.1-2.8-1-1.9-2.7C65.7,54.5,67.3,54.2,67.1,52.9"/>
		<path class="st4" d="M115.3,60.1c0,0.3,0.4,0.6,0.7,0.5c0.4-0.1,0.5-0.5,0.6-0.8l-0.1-1c0-0.3-0.3-0.5-0.7-0.5
			c-0.5,0-0.6,0.3-0.6,0.7L115.3,60.1z"/>
		<path class="st4" d="M113.8,60.8c0.1,0.5,0.6,0.9,1,0.7c0.5-0.2,0.6-0.8,0.6-1.4l-0.2-1.6c-0.1-0.5-0.4-0.8-1-0.7
			c-0.6,0-0.7,0.6-0.6,1.1L113.8,60.8z"/>
		<path class="st4" d="M112.4,61.4c0.2,0.6,0.8,1,1.2,0.7c0.4-0.3,0.5-1,0.3-1.8l-0.6-1.9c-0.2-0.6-0.6-0.8-1.2-0.7
			c-0.6,0.1-0.6,0.9-0.4,1.4L112.4,61.4z"/>
		<path class="st4" d="M110.8,62c0.2,0.5,0.7,0.7,1.1,0.4c0.4-0.3,0.4-1,0.3-1.6l-0.6-1.5c-0.2-0.5-0.6-0.6-1.2-0.4
			c-0.6,0.2-0.6,0.8-0.4,1.3L110.8,62z"/>
		<path class="st4" d="M111.2,62.7c-0.3-1.3,0.7-2.7-0.2-3.3c-0.2-0.1-2,1.2-2.2,1.9c-0.1,0.9,0.3,2.8,0.7,3.3l1.1,1.8
			c0.5,0.6,2.6,2,3.3,1.6c0.7-0.4,2.4-2.7,0.9-3.9C113.3,63,111.5,64,111.2,62.7"/>
		<g>
			<path class="st6" d="M80.5,131.7c12.4-5.4,24.7-4.8,27.4,1.4c2.7,6.2-5.3,15.7-17.7,21.1c-12.4,5.4-24.7,4.8-27.4-1.4
				C60.1,146.6,68.1,137.2,80.5,131.7L80.5,131.7L80.5,131.7z"/>
			<path class="st1" d="M70.1,134.8h2.2v0.8c0.1-0.3,0.2-0.5,0.5-0.7c0.3-0.2,0.5-0.3,0.9-0.3c0.4,0,0.7,0.1,0.9,0.2
				c0.3,0.1,0.5,0.4,0.7,0.7c0.2-0.3,0.4-0.5,0.6-0.7c0.3-0.2,0.6-0.2,0.9-0.2c0.7,0,1.3,0.3,1.5,0.8c0.3,0.6,0.4,1.7,0.4,3.5
				l0,12.2h-2.4l0-13.9c0-0.2,0-0.3-0.1-0.4c-0.1-0.1-0.2-0.2-0.3-0.2c-0.2,0-0.3,0.1-0.3,0.2c-0.1,0.1-0.1,0.3-0.1,0.7v0.2l0,13.5
				h-2.3l0-13.5c0-0.1,0-0.2,0-0.3c0-0.1,0-0.2,0-0.2c0-0.2,0-0.3-0.1-0.4c-0.1-0.1-0.2-0.2-0.3-0.2c-0.1,0-0.2,0.1-0.3,0.2
				c-0.1,0.1-0.1,0.3-0.1,0.7v0.2l0,13.5h-2.4L70.1,134.8L70.1,134.8L70.1,134.8z"/>
			<path class="st1" d="M82.2,145v3.4c0,0.5,0,0.8,0.1,0.9c0.1,0.1,0.2,0.2,0.3,0.2c0.1,0,0.2-0.1,0.3-0.2c0.1-0.1,0.1-0.2,0.1-0.4
				v-0.5l0-5.8c-0.3,0.2-0.5,0.4-0.6,0.6c-0.1,0.2-0.2,0.6-0.2,1.2V145L82.2,145L82.2,145z M79.8,139.3l0-1.3c0-1.2,0.2-2.1,0.7-2.6
				c0.5-0.6,1.1-0.8,2.1-0.8c0.9,0,1.6,0.3,2.1,0.8c0.5,0.5,0.7,1.4,0.7,2.5c0,0,0,0.1,0,0.1c0,0.3,0,0.5,0,0.8l0,12.3h-2.2v-0.8
				c-0.1,0.3-0.3,0.6-0.5,0.7c-0.2,0.2-0.5,0.2-0.8,0.2c-0.7,0-1.2-0.3-1.5-0.8c-0.3-0.5-0.4-1.7-0.4-3.5v-2c0-1.4,0.2-2.3,0.6-2.9
				c0.4-0.5,1.3-1.1,2.6-1.8V137c0-0.2,0-0.3-0.1-0.4c-0.1-0.1-0.2-0.1-0.3-0.1c-0.2,0-0.3,0.1-0.3,0.2c-0.1,0.1-0.1,0.4-0.1,0.9
				v1.8H79.8L79.8,139.3L79.8,139.3z"/>
			<path class="st1" d="M86.3,138.8V138c0-1.2,0.2-2.1,0.7-2.6c0.5-0.5,1.2-0.8,2.1-0.8c1,0,1.7,0.3,2.1,0.8
				c0.5,0.5,0.7,1.4,0.7,2.5v1v1.5h-2.4V137c0-0.2,0-0.3-0.1-0.4c-0.1-0.1-0.2-0.2-0.3-0.2c-0.2,0-0.3,0.1-0.3,0.2
				c-0.1,0.1-0.1,0.3-0.1,0.7v0.2l0,10.9c0,0.5,0,0.8,0.1,0.9c0.1,0.1,0.2,0.2,0.3,0.2c0.1,0,0.2-0.1,0.3-0.2
				c0.1-0.1,0.1-0.2,0.1-0.4v-0.5v-3.7H92v3.5c0,1-0.2,1.8-0.7,2.3c-0.5,0.5-1.2,0.8-2.1,0.8c-1,0-1.8-0.3-2.2-0.8
				c-0.4-0.6-0.6-1.7-0.6-3.4L86.3,138.8L86.3,138.8L86.3,138.8z"/>
			<path class="st1" d="M95,145l0,3.4c0,0.5,0,0.8,0.1,0.9c0.1,0.1,0.2,0.2,0.3,0.2c0.1,0,0.2-0.1,0.3-0.2c0.1-0.1,0.1-0.2,0.1-0.4
				v-0.5l0-5.8c-0.3,0.2-0.5,0.4-0.6,0.6c-0.1,0.2-0.2,0.6-0.2,1.2V145L95,145L95,145z M92.7,139.3V138c0-1.2,0.2-2.1,0.7-2.6
				c0.5-0.6,1.1-0.8,2.1-0.8c0.9,0,1.6,0.3,2.1,0.8c0.5,0.5,0.7,1.4,0.7,2.5c0,0,0,0.1,0,0.1c0,0.3,0,0.5,0,0.8l0,12.3H96v-0.8
				c-0.1,0.3-0.3,0.6-0.5,0.7c-0.2,0.2-0.5,0.2-0.8,0.2c-0.7,0-1.2-0.3-1.5-0.8c-0.3-0.5-0.4-1.7-0.4-3.5l0-2c0-1.4,0.2-2.3,0.6-2.9
				c0.4-0.5,1.3-1.1,2.6-1.8V137c0-0.2,0-0.3-0.1-0.4c-0.1-0.1-0.2-0.1-0.3-0.1c-0.2,0-0.3,0.1-0.3,0.2c-0.1,0.1-0.1,0.4-0.1,0.9
				l0,1.8H92.7L92.7,139.3L92.7,139.3z"/>
			<path d="M85.9,148.9c1.2,0,2.2,1,2.2,2.2c0,1.2-1,2.2-2.2,2.2c-1.2,0-2.2-1-2.2-2.2C83.7,149.9,84.7,148.9,85.9,148.9L85.9,148.9
				L85.9,148.9z"/>
			<path class="st6" d="M87.1,149.8c-0.3-0.3-0.8-0.5-1.2-0.5c-0.5,0-0.9,0.2-1.2,0.5c-0.3,0.3-0.5,0.8-0.5,1.2
				c0,0.5,0.2,0.9,0.5,1.2c0.3,0.3,0.8,0.5,1.2,0.5c0.5,0,0.9-0.2,1.2-0.5c0.3-0.3,0.5-0.8,0.5-1.2
				C87.6,150.6,87.4,150.1,87.1,149.8L87.1,149.8L87.1,149.8z M85.9,148.5c0.7,0,1.3,0.3,1.8,0.8c0.5,0.5,0.8,1.1,0.8,1.8
				c0,0.7-0.3,1.3-0.8,1.8c-0.5,0.5-1.1,0.8-1.8,0.8c-0.7,0-1.3-0.3-1.8-0.8c-0.5-0.5-0.8-1.1-0.8-1.8c0-0.7,0.3-1.3,0.8-1.8
				C84.5,148.8,85.2,148.5,85.9,148.5L85.9,148.5L85.9,148.5z"/>
			<path class="st6" d="M81.4,129.5c-0.2,0.1-0.3,0.1-0.3,0.1c-7.2,2.4-13.3,6.1-17.3,10.1c-3.9,3.9-5.8,8.2-4.7,11.8c0,0,0,0,0,0v0
				c1.1,3.5,4.9,5.8,10.2,6.7c5.4,0.9,12.3,0.3,19.4-2.1c0.2-0.1,0.3-0.1,0.3-0.1c7.2-2.4,13.3-6.1,17.3-10.1
				c3.9-3.9,5.8-8.2,4.7-11.8c0,0,0,0,0,0v0c-1.1-3.5-4.9-5.8-10.2-6.7C95.4,126.6,88.5,127.2,81.4,129.5L81.4,129.5L81.4,129.5z
				 M80.8,128.9c0.2-0.1,0.3-0.1,0.3-0.1c7.2-2.4,14.3-3,19.8-2.1c5.6,0.9,9.7,3.4,10.9,7.3h0c0,0,0,0,0,0c1.2,3.9-0.8,8.5-4.9,12.6
				c-4.1,4.1-10.3,7.9-17.6,10.3C89.2,157,89,157,89,157c-7.2,2.4-14.3,3-19.8,2.1c-5.6-0.9-9.7-3.4-10.9-7.3h0c0,0,0,0,0,0
				c-1.2-3.9,0.8-8.5,4.9-12.6C67.3,135.1,73.5,131.3,80.8,128.9L80.8,128.9L80.8,128.9z"/>
			<path d="M79.4,148.9c1.2,0,2.2,1,2.2,2.2c0,1.2-1,2.2-2.2,2.2c-1.2,0-2.2-1-2.2-2.2C77.3,149.9,78.2,148.9,79.4,148.9L79.4,148.9
				L79.4,148.9z"/>
			<path class="st6" d="M80.6,149.8c-0.3-0.3-0.8-0.5-1.2-0.5c-0.5,0-0.9,0.2-1.2,0.5c-0.3,0.3-0.5,0.8-0.5,1.2s0.2,0.9,0.5,1.2
				c0.3,0.3,0.8,0.5,1.2,0.5c0.5,0,0.9-0.2,1.2-0.5c0.3-0.3,0.5-0.8,0.5-1.2C81.2,150.6,81,150.1,80.6,149.8L80.6,149.8L80.6,149.8z
				 M79.4,148.5c0.7,0,1.3,0.3,1.8,0.8c0.5,0.5,0.8,1.1,0.8,1.8c0,0.7-0.3,1.3-0.8,1.8c-0.5,0.5-1.1,0.8-1.8,0.8
				c-0.7,0-1.3-0.3-1.8-0.8c-0.5-0.5-0.8-1.1-0.8-1.8c0-0.7,0.3-1.3,0.8-1.8C78.1,148.8,78.7,148.5,79.4,148.5L79.4,148.5
				L79.4,148.5z"/>
			<path d="M92.5,148.9c1.2,0,2.1,1,2.1,2.1c0,0.4-0.1,0.8-0.4,1.2c-0.6,0.3-1.2,0.6-1.8,0.9c-1.2,0-2.1-1-2.1-2.1
				C90.3,149.9,91.3,148.9,92.5,148.9L92.5,148.9L92.5,148.9z"/>
			<path class="st6" d="M93.7,149.8c-0.3-0.3-0.7-0.5-1.2-0.5c-0.5,0-0.9,0.2-1.2,0.5c-0.3,0.3-0.5,0.7-0.5,1.2
				c0,0.5,0.2,0.9,0.5,1.2s0.7,0.5,1.2,0.5c0.5,0,0.9-0.2,1.2-0.5s0.5-0.7,0.5-1.2C94.2,150.6,94,150.1,93.7,149.8L93.7,149.8
				L93.7,149.8z M92.5,148.5c0.7,0,1.3,0.3,1.8,0.7c0.5,0.5,0.7,1.1,0.7,1.8c0,0.3-0.1,0.6-0.1,0.8c-1,0.6-2,1.1-3,1.6
				c-0.4-0.1-0.8-0.3-1.1-0.6c-0.5-0.5-0.7-1.1-0.7-1.8c0-0.7,0.3-1.3,0.7-1.8C91.1,148.8,91.8,148.5,92.5,148.5L92.5,148.5
				L92.5,148.5z"/>
		</g>
		<g>
			<g>
				<g>
					<path class="st2" d="M47.9,213.3c-0.6,5.3-3.8,7.6-9.4,7.6c-6.9,0-10.1-4.3-10.1-14.2c0-10.3,3-15.1,10.1-15.1
						c5.7,0,8.6,2.6,9.3,7.7c0.1,0.9,0.2,2.3,0.2,3.4v0.2c-1.1-0.1-2.4-0.1-3.7-0.1c-1.1,0-2.2,0-3.2,0.1v-0.7c0-2.1,0-5.4-2.4-5.4
						c-1.9,0-3.1,1.3-3.1,10.1c0,6.3,0.5,8.6,3.1,8.6c2.3,0,2.6-2.2,2.8-3.9c0-0.6,0.1-1,0.1-1.6c1.5,0.2,3.2,0.2,4.9,0.2
						c0.6,0,1.1,0,1.7,0l0,0.6C48.1,211.7,48,212.4,47.9,213.3"/>
					<path class="st2" d="M61.7,220.4c0,0-0.5-3.3-0.9-4.8c-0.1-0.4-0.3-0.4-0.7-0.5c-0.4,0-1.7,0-3,0c-1.2,0-2.4,0-2.8,0
						c-0.5,0-0.5,0.2-0.6,0.4c-0.3,1.3-0.7,3.3-1,4.9c-0.7,0-6,0-6.7,0c1.9-7.6,4.6-18.9,6.7-28.2c0.5,0,9,0,9.6,0
						c1.8,8.9,6.4,28.2,6.4,28.2H61.7z M59.5,209.5c-0.6-3.1-1.3-6.7-1.8-9.3c-0.1-0.5-0.1-0.5-0.2-1.1c-0.1-0.5-0.1-0.9-0.2-0.9
						c-0.1,0-0.1,0.3-0.2,0.9c0,0.3-0.1,0.6-0.2,1c-0.6,2.6-1.3,6.3-2,9.5c0,0.1,0,0.1,0,0.2c0,0.2,0.1,0.3,0.4,0.3c0.5,0,1.5,0,2,0
						c0.8,0,1.1,0,1.9,0c0.3,0,0.4-0.2,0.4-0.3C59.5,209.8,59.5,209.6,59.5,209.5"/>
					<path class="st2" d="M81.2,220.4c-1.1-3-5.3-13-6.5-15.8c-0.2-0.4-0.3-1.1-0.4-1.4c-0.1-0.2-0.2-0.6-0.3-0.6
						c-0.1,0-0.1,0.4-0.1,0.5l0,1.9l0,15.4l-6.1,0c0,0,0-8.3,0-13.2c0-5,0-10.3,0-15c1.4,0,6.3,0,7.9,0c1.3,3.5,4.9,12.4,5.7,14.1
						c0.1,0.3,0.5,1.2,0.7,1.7c0,0.2,0.1,0.4,0.3,0.4c0,0,0.1-0.3,0.1-0.5c0-0.7,0-1.1,0-1.9l0-13.8c1.2,0,4.5,0,6.2,0
						c0,4.6-0.1,9.3-0.1,14c0,4.7,0,14.2,0,14.2S82.5,220.4,81.2,220.4"/>
					<path class="st2" d="M107.8,213.3c-0.6,5.3-3.8,7.6-9.4,7.6c-6.9,0-10.2-4.3-10.2-14.2c0-10.3,3-15.1,10.1-15.1
						c5.7,0,8.6,2.6,9.3,7.7c0.1,0.9,0.2,2.3,0.2,3.4v0.2c-1.1-0.1-2.4-0.1-3.7-0.1c-1.1,0-2.2,0-3.2,0.1v-0.6c0-2.1,0-5.4-2.4-5.4
						c-1.9,0-3.1,1.3-3.1,10.1c0,6.3,0.5,8.6,3.1,8.6c2.3,0,2.6-2.2,2.8-3.9c0-0.6,0.1-1,0.1-1.6c1.5,0.2,3.2,0.2,4.9,0.2
						c0.6,0,1.1,0,1.7,0l0,0.7C108.1,211.7,108,212.4,107.8,213.3"/>
					<path class="st2" d="M107.9,220.4c0-3.6-0.1-8.5-0.1-13.4c0-5,0-10.6-0.1-14.9c2.2,0,12.9,0,15.5,0c0,0.7,0,1.8,0,2.9
						c0,1.1,0,2.1,0,2.8c-2.7,0-5.9-0.1-8.2-0.1c-0.5,0-0.5,0.2-0.5,0.2c-0.1,1-0.1,4.1-0.1,4.4v0.9c0,0.5,0.1,0.6,0.6,0.6h0.7
						c2,0,4.5,0,6.4-0.1c0,0.6,0,1.7,0,2.8c0,1.1,0,2.2,0,2.8c-2,0-4.5-0.1-6.4-0.1h-0.8c-0.4,0-0.6,0.1-0.6,0.6v0.7
						c0,1.3,0,2.9,0,3.9c0,0.4,0.1,0.4,0.6,0.4c2.5,0,5.5,0,8.2-0.1c0,1.1-0.1,2-0.1,2.9c0,1.1-0.1,2.4-0.1,2.9H107.9z"/>
					<path class="st2" d="M135.2,220.4c-0.7-2.8-1.7-6.6-2.1-8.1c-0.6-1.7-0.9-2.3-1.8-2.3h-0.9c-0.4,0-0.4,0.1-0.4,0.7v1
						c0,3.2,0,8.7,0,8.7h-6.8c0,0,0.1-7.6,0.1-12.1c0-5.4,0-11.3-0.1-16.2h4.1c2.1,0,3.9,0,6.1,0c5.3,0,8.6,3.2,8.6,8.5
						c0,3.7-1.9,6.3-3.6,7c-0.4,0.2-0.5,0.1-0.5,0.2c0,0.2,0.4,0.4,0.4,0.6c0.3,0.4,0.9,1,1.8,3.8c0.6,1.7,1.6,5.2,2.4,8
						C138,220.4,137.3,220.4,135.2,220.4 M131.2,197.4h-0.7c-0.6,0-0.6,0.1-0.6,0.5c0,0.9-0.1,1.8-0.1,2.7c0,1.2,0,2.4,0,3.5
						c0,0.4,0,0.5,0.6,0.5h0.8c2.4,0,3.6-1.2,3.6-3.6C135,198.4,133.5,197.4,131.2,197.4"/>
				</g>
				<g>
					<path class="st2" d="M32.2,188.8c-1.6-1.4-2.3-3.8-2.3-5.7c0-2.2,0.7-4.1,2.2-5.7c1.2-1.3,3-2.3,5.6-2.3c1.9,0,3.5,0.5,4.3,0.9
						c0.3,0.1,0.4,0.1,0.4,0l0.2-0.5c0-0.1,0.1-0.1,0.4-0.1c0.3,0,0.4,0,0.4,0.3c0,0.4,0.4,4,0.5,4.6c0,0.1,0,0.3-0.1,0.3l-0.5,0.1
						c-0.1,0-0.2,0-0.3-0.2c-0.2-0.8-0.8-1.9-1.7-2.8c-0.9-0.9-2-1.6-3.6-1.6c-3.1,0-4.4,2.8-4.4,5.9c0,1.3,0.4,3.9,1.9,5.5
						c1.4,1.4,2.6,1.6,3.3,1.6c2.4,0,4.2-1.1,5-2.3c0.1-0.2,0.2-0.3,0.3-0.2l0.4,0.3c0.1,0,0.1,0.1,0,0.3c-1.2,1.8-3.3,3.5-6.3,3.5
						C35,190.7,33.5,190,32.2,188.8"/>
					<path class="st2" d="M48.4,189.3c-1.5-0.9-3.1-3.2-3.1-6.3c0-1.3,0.3-3.3,2-5.3c1.9-2.3,4.3-2.7,6.2-2.7c1.8,0,3.4,0.3,5.2,1.7
						c1.6,1.3,2.9,3.4,2.9,6.3c0,1.5-0.5,3.2-1.6,4.6c-1.4,1.7-3.2,3-6.5,3C51.9,190.7,50,190.4,48.4,189.3 M58.1,183.3
						c0-4.6-3.1-7.2-4.8-7.2c-0.4,0-1.5-0.1-2.8,1.1c-1.3,1.2-1.9,3.4-1.9,5.1c0,5.4,3.1,7.3,4.9,7.3
						C57.4,189.7,58.1,185,58.1,183.3"/>
					<path class="st2" d="M75.6,184.2c0-1.9,0-2.9-0.1-4c0-0.8-0.1-2.9-0.2-3.2c-0.1-0.5-0.6-0.8-1.1-0.8h-0.7
						c-0.1,0-0.1-0.1-0.1-0.2v-0.5c0-0.1,0-0.1,0.2-0.1c0.2,0,0.9,0.1,2.5,0.1c1.3,0,1.8-0.1,2-0.1c0.2,0,0.2,0,0.2,0.2v0.5
						c0,0.1,0,0.2-0.1,0.2h-0.6c-0.4,0-0.6,0.4-0.6,1.1c-0.1,1.4-0.5,6.2-0.5,9v3.6c0,0.3,0,0.7-0.3,0.7c-0.3,0-0.6-0.1-0.8-0.3
						c-0.4-0.3-1.4-1.5-2.7-3c-1.5-1.8-3.2-3.8-3.6-4.3c-0.4-0.4-3.3-4.1-3.8-4.8h-0.2v4.3c0,1.8,0.2,4.4,0.2,5.2
						c0,1.2,0.4,1.9,1.3,1.9h0.5c0.1,0,0.2,0.1,0.2,0.2v0.5c0,0.1,0,0.2-0.2,0.2c-0.2,0-1.5-0.1-2.5-0.1c-0.7,0-2.1,0.1-2.3,0.1
						c-0.1,0-0.1,0-0.1-0.2v-0.5c0-0.1,0-0.1,0.1-0.1h0.7c0.5,0,0.8-0.7,0.9-2.1c0-0.4,0.2-3.8,0.2-6.9v-1.9c0-1.2-0.8-2.4-1.8-2.5
						l-0.5,0c-0.1,0-0.1-0.1-0.1-0.1v-0.6c0-0.1,0-0.1,0.1-0.1c0.1,0,0.3,0,0.7,0c0.4,0,1.1,0,2.2,0c0.7,0,1.4,0,1.6,0
						c0.3,0,0.4,0.1,0.6,0.3c0.1,0.1,4.3,5.2,4.9,6c0.3,0.4,3.4,4.2,3.6,4.5h0.1V184.2z"/>
					<path class="st2" d="M93.7,177.4c1.4,1.5,2.1,3.4,2,5.3c0,2.3-0.9,4.3-2.2,5.6c-1.2,1.3-2.3,1.8-3.8,2.3v0
						c1.8,0.7,3.5,1.3,5,1.6c4.5,1.1,5.5,1,6.2,1c0.6,0,1.2-0.3,1.5-0.6c0.1-0.1,0.2-0.1,0.2,0l0.3,0.3c0.1,0,0.1,0.2,0,0.3
						c-0.4,0.7-2,2.5-3.3,2.5c-1.1,0-2.4-0.1-5.4-1.1c-2.4-0.8-4.6-1.8-8.1-3.6c-0.4-0.2-2.9-0.5-4.8-2.5c-1.1-1.1-2-3.1-2-5.4
						c0-2.3,0.9-4.3,2.5-5.7c1.7-1.5,3.9-2.1,5.6-2.1C90.5,175.1,92.4,176,93.7,177.4 M92.4,183.4c0-2.5-0.9-4.5-1.9-5.7
						c-0.9-1.1-2-1.6-3.2-1.6c-1.1,0-2.1,0.7-2.7,1.2c-1.4,1.3-1.9,3.2-1.9,4.9c0,3,1.3,5.1,2.1,6.2c0.7,0.9,2.2,1.4,2.8,1.4
						C91.4,189.8,92.4,185.1,92.4,183.4"/>
					<path class="st2" d="M98,177.3c0-0.7-0.1-1.1-0.6-1.1h-1c-0.1,0-0.1,0-0.1-0.2v-0.5c0-0.1,0-0.2,0.2-0.2c0.2,0,1.2,0.1,3.5,0.1
						c1.9,0,2.9-0.1,3.1-0.1c0.2,0,0.2,0,0.2,0.2v0.5c0,0.1,0,0.1-0.2,0.1h-0.7c-0.7,0-1.1,0.4-1.1,0.8c0,0.2,0,1.7,0,2.8v1.4
						c0,1.1,0.1,3.8,0.1,4.5c0,1,0.2,1.9,0.7,2.5c0.7,0.8,1.7,1.2,2.6,1.2c0.8,0,1.9-0.4,2.5-0.9c0.8-0.8,1.3-1.9,1.3-3.5v-3.3
						c0-1.8-0.2-4.1-0.3-4.6c-0.1-0.5-0.4-0.9-0.8-0.9h-0.7c-0.1,0-0.2-0.1-0.2-0.2v-0.6c0-0.1,0-0.1,0.2-0.1c0.2,0,1.2,0.1,2.6,0.1
						c1.1,0,1.8-0.1,2-0.1c0.2,0,0.2,0.1,0.2,0.2v0.5c0,0.1,0,0.2-0.1,0.2h-0.7c-0.8,0-0.9,0.6-0.9,0.8c0,0.3,0,3.2,0,3.5
						c0,0.3,0,4-0.1,4.8c-0.1,1.7-0.7,3.1-1.8,4c-0.9,0.8-2.4,1.3-3.7,1.3c-1,0-2.3-0.1-3.2-0.5c-1-0.4-1.9-1.4-2.5-2.8
						c-0.4-0.9-0.4-2.3-0.4-5.1V177.3z"/>
					<path class="st2" d="M117.6,182.3c1,0,1.9-0.1,2.2-0.1c0.4-0.1,0.7-0.3,1-0.7c0.2-0.3,0.5-0.9,0.5-1.3c0-0.1,0.1-0.2,0.2-0.2
						l0.6,0.1c0.1,0,0.2,0,0.2,0.2c-0.1,0.4-0.1,1.5-0.1,2.2c0,1,0.1,2,0.1,2.4c0,0.1-0.1,0.1-0.2,0.2l-0.5,0.1
						c-0.1,0-0.1,0-0.2-0.2c-0.1-0.3-0.3-0.8-0.4-1.1c-0.2-0.4-0.7-0.7-1.2-0.7c-0.6-0.1-1.2-0.1-2.2-0.1v1.3c0,1.1,0.1,3.2,0.1,3.6
						c0,1.1,0.2,1.5,0.5,1.6c0.3,0.1,0.7,0.2,1.8,0.2c0.4,0,1.2,0,1.7-0.1c0.4,0,1.1-0.3,1.6-0.7c0.5-0.4,1.7-1.8,2.2-2.3
						c0.1-0.1,0.1-0.1,0.2-0.1l0.4,0.2c0.1,0,0.1,0.1,0.1,0.2l-1,3.2c-0.1,0.2-0.2,0.3-0.5,0.3c-0.1,0-0.6,0-1.9,0
						c-1.4,0-3.6,0-7.3,0c-0.8,0-1.4,0-1.8,0c-0.4,0-0.7,0-0.9,0c-0.1,0-0.2-0.1-0.2-0.2v-0.4c0-0.1,0.1-0.2,0.2-0.2h0.6
						c1,0,1.1-0.2,1.1-0.9v-7.1c0-1.8,0-4.4-0.1-4.6c-0.1-0.7-0.3-0.8-0.9-0.8h-0.8c-0.1,0-0.1-0.1-0.1-0.2v-0.5
						c0-0.1,0-0.1,0.1-0.1c0.5,0,1.2,0.1,3.1,0.1l7.4,0c0.3,0,0.7,0,0.8,0c0.1,0,0.1,0,0.2,0.1c0.1,0.3,0.8,3.2,0.9,3.4
						c0,0.1,0,0.1-0.1,0.2l-0.3,0.2c-0.1,0-0.2,0-0.3-0.1c-0.1-0.2-2-2.1-2.5-2.4c-0.4-0.3-1-0.6-1.6-0.6l-2.8-0.1L117.6,182.3z"/>
					<path class="st2" d="M128.3,180.8c0-1.6,0-2.9,0-3.5c0-0.7-0.3-1.1-0.6-1.1h-0.9c-0.1,0-0.1-0.1-0.1-0.1v-0.6
						c0-0.1,0-0.1,0.1-0.1c0.2,0,0.9,0.1,3.2,0.1c1.2,0,3-0.1,3.9-0.1c1.7,0,2.9,0.6,3.7,1.4c0.8,0.7,1.2,1.5,1.2,2.3
						c0,2.7-2,3.9-3.9,4.1v0.1c0.7,0.2,1,0.6,1.4,1.1c0.3,0.3,1.4,2.2,1.6,2.5c0.1,0.2,1.3,1.8,1.7,2.3c0.3,0.3,1.1,0.4,1.5,0.4
						c0.1,0,0.2,0.1,0.2,0.2v0.5c0,0.1,0,0.2-0.2,0.2c-0.2,0-0.7-0.1-2.4-0.1c-0.6,0-1.4,0-2,0.1c-0.6-0.5-2-2.9-2.3-3.7
						c-0.7-1.4-1.6-3-2.6-3h-0.7v1.1c0,1.3,0.1,3.6,0.1,3.9c0,0.4,0.2,0.8,0.5,0.8h0.9c0.1,0,0.2,0.1,0.2,0.2v0.5
						c0,0.1,0,0.2-0.3,0.2c0,0-0.6-0.1-2.8-0.1c-2.2,0-2.7,0.1-3,0.1c-0.2,0-0.2-0.1-0.2-0.2v-0.5c0-0.1,0-0.2,0.1-0.2h0.6
						c0.5,0,0.8-0.2,0.8-0.7c0-2.1,0-4.1,0-6.1V180.8z M131.3,183.1c0.4,0,0.7,0,0.8,0c2.8,0,3.5-2.7,3.5-3.7c0-1-0.3-1.9-0.8-2.4
						c-0.8-0.7-1.7-0.9-2.3-0.9c-0.4,0-0.6,0-0.8,0.2c-0.1,0.1-0.2,0.3-0.2,0.6L131.3,183.1z"/>
				</g>
				<g>
					<path class="st2" d="M48.5,165.1c0-1.8,0-2-0.8-2.1l-0.5-0.1c-0.2-0.1-0.2-0.5,0-0.6c1.3-0.1,2.7-0.2,4.4-0.2
						c1.5,0,2.8,0.2,3.5,0.6c1,0.6,1.6,1.5,1.6,2.6c0,1.6-1.1,2.2-1.9,2.7c-0.2,0.1-0.2,0.2-0.1,0.4c1.2,2.4,1.9,3.7,2.7,4.4
						c0.5,0.4,0.9,0.5,1.2,0.5c0.2,0.1,0.2,0.4,0.1,0.5c-0.3,0.1-0.9,0.2-1.4,0.2c-1.6,0-2.7-0.6-3.4-1.9c-0.6-0.9-1-1.8-1.4-2.7
						c-0.2-0.5-0.5-0.6-0.9-0.6c-0.6,0-0.7,0-0.7,0.4v2.2c0,1.6,0.1,1.8,0.9,1.9l0.5,0.1c0.1,0.1,0.1,0.5,0,0.6
						c-0.9,0-1.8-0.1-2.6-0.1c-0.9,0-1.7,0-2.6,0.1c-0.1-0.1-0.1-0.5,0-0.6l0.5-0.1c0.8-0.1,0.9-0.3,0.9-1.9V165.1z M51,167.3
						c0,0.6,0.1,0.7,1.1,0.7c0.6,0,1-0.2,1.3-0.5c0.3-0.3,0.6-0.9,0.6-1.9c0-1.6-0.9-2.6-2.3-2.6c-0.7,0-0.8,0.1-0.8,0.9V167.3z"/>
					<path class="st2" d="M64,171.3c0,1.7,0.1,1.8,0.9,1.9l0.5,0.1c0.1,0.1,0.1,0.5,0,0.6c-1,0-1.8-0.1-2.7-0.1
						c-0.9,0-1.7,0-2.7,0.1c-0.1-0.1-0.1-0.5,0-0.6l0.5-0.1c0.8-0.1,0.9-0.3,0.9-1.9v-6.5c0-1.7-0.1-1.8-0.9-1.9l-0.5-0.1
						c-0.1-0.1-0.1-0.5,0-0.6c1,0,1.8,0.1,2.7,0.1c0.8,0,1.7,0,2.7-0.1c0.1,0.1,0.1,0.5,0,0.6l-0.5,0.1c-0.8,0.1-0.9,0.3-0.9,1.9
						V171.3z"/>
					<path class="st2" d="M69.1,165.1c0-1.7,0-2-0.9-2.1l-0.3,0c-0.2-0.1-0.2-0.6,0-0.6c1.5-0.1,2.9-0.2,4.7-0.2
						c1.5,0,2.9,0.1,4.1,0.6c2.3,0.8,3.6,2.9,3.6,5.1c0,2.4-1.1,4.3-3.2,5.3c-1.2,0.6-2.7,0.8-4.5,0.8c-0.8,0-1.7-0.1-2.4-0.1
						c-0.9,0-1.8,0-2.8,0.1c-0.1-0.1-0.1-0.5,0-0.6l0.5-0.1c0.8-0.1,0.9-0.3,0.9-1.9V165.1z M71.7,170.7c0,1,0,1.6,0.4,2
						c0.3,0.4,0.8,0.5,1.5,0.5c3.1,0,4.1-2.7,4.1-5.1c0-3.2-1.7-5.1-4.9-5.1c-0.5,0-0.8,0.1-0.9,0.2c-0.1,0.1-0.1,0.5-0.1,1V170.7z"
						/>
					<path class="st2" d="M86.8,166.8c0,0.5,0,0.5,0.5,0.5h1.2c0.9,0,1.1-0.1,1.3-1l0.1-0.4c0.1-0.1,0.6-0.1,0.7,0
						c0,0.6-0.1,1.2-0.1,1.9c0,0.7,0,1.3,0.1,1.9c-0.1,0.2-0.5,0.2-0.7,0l-0.1-0.4c-0.2-0.9-0.4-1-1.3-1h-1.2c-0.5,0-0.5,0-0.5,0.5
						v2.1c0,0.8,0.1,1.4,0.3,1.7c0.2,0.3,0.6,0.5,1.9,0.5c1.5,0,2.1-0.1,3.1-2.1c0.1-0.2,0.6-0.1,0.7,0.1c-0.1,0.9-0.5,2.4-0.7,2.8
						c-0.9,0-2.6-0.1-4.1-0.1h-2.3c-0.9,0-1.7,0-3,0.1c-0.1-0.1-0.1-0.5,0-0.6l0.8-0.1c0.8-0.1,0.9-0.2,0.9-1.9v-6.6
						c0-1.6-0.1-1.7-0.9-1.9l-0.4-0.1c-0.2-0.1-0.1-0.5,0-0.6c0.8,0,1.7,0.1,2.6,0.1h3.8c1.1,0,2.1,0,2.4-0.1c0,0.3,0.1,1.6,0.2,2.7
						c-0.1,0.2-0.5,0.2-0.7,0.1c-0.2-0.6-0.4-1.2-0.7-1.4c-0.3-0.3-0.9-0.5-1.7-0.5h-1.4c-0.6,0-0.6,0-0.6,0.7V166.8z"/>
					<path class="st2" d="M103.2,163.5c0-0.4,0-0.5-0.4-0.5h-1.1c-1.3,0-1.7,0.7-2.2,2c-0.2,0.1-0.5,0.1-0.7-0.2
						c0.4-1.2,0.5-2.3,0.6-3c0.1-0.1,0.2-0.1,0.2-0.1c0.1,0,0.2,0,0.2,0.1c0.1,0.3,0.1,0.4,1.5,0.4h6.6c1.2,0,1.4,0,1.6-0.4
						c0.1,0,0.1-0.1,0.2-0.1c0.1,0,0.2,0.1,0.3,0.1c-0.2,0.6-0.3,2-0.3,3c-0.1,0.2-0.6,0.2-0.7,0.1c-0.3-1.1-0.5-2-1.9-2h-1.1
						c-0.4,0-0.5,0.1-0.5,0.5v7.8c0,1.6,0.1,1.8,0.9,1.9l0.7,0.1c0.1,0.1,0.1,0.5,0,0.6c-1.2,0-2-0.1-2.8-0.1c-0.9,0-1.8,0-3,0.1
						c-0.1-0.1-0.1-0.5,0-0.6l0.8-0.1c0.8-0.1,0.9-0.2,0.9-1.9V163.5z"/>
					<path class="st2" d="M123.8,168c0,3.9-2.6,6.2-6.4,6.2c-3.6,0-6.1-2.3-6.1-6c0-3.5,2.6-6.2,6.3-6.2
						C121.3,161.9,123.8,164.4,123.8,168z M117.4,162.7c-2.2,0-3.3,2-3.3,5c0,2.2,0.8,5.6,3.6,5.6c2.3,0,3.2-2.3,3.2-5.1
						C121,165.2,119.6,162.7,117.4,162.7z"/>
				</g>
			</g>
			<g>
				<g>
					<path class="st2" d="M32.9,238.6C32.9,238.6,32.8,238.7,32.9,238.6c-0.1,0.1-0.1,0.1-0.1,0.2c-0.1,0-0.1,0-0.2,0
						c-0.1,0-0.2,0-0.3,0c-0.1,0-0.2,0-0.3,0c-0.1,0-0.2,0-0.2,0c0,0-0.1,0-0.1-0.1c0,0,0-0.1,0-0.1v-2.7H29v2.7c0,0,0,0.1,0,0.1
						c0,0-0.1,0-0.1,0.1c-0.1,0-0.1,0-0.2,0c-0.1,0-0.2,0-0.3,0c-0.1,0-0.2,0-0.3,0c-0.1,0-0.2,0-0.2,0c-0.1,0-0.1,0-0.1-0.1
						c0,0,0-0.1,0-0.1v-6.2c0,0,0-0.1,0-0.1c0,0,0.1,0,0.1-0.1c0.1,0,0.1,0,0.2,0c0.1,0,0.2,0,0.3,0c0.1,0,0.2,0,0.3,0
						c0.1,0,0.2,0,0.2,0c0.1,0,0.1,0,0.1,0.1c0,0,0,0.1,0,0.1v2.4h2.5v-2.4c0,0,0-0.1,0-0.1c0,0,0.1,0,0.1-0.1c0,0,0.1,0,0.2,0
						c0.1,0,0.2,0,0.3,0c0.1,0,0.2,0,0.3,0c0.1,0,0.2,0,0.2,0c0.1,0,0.1,0,0.1,0.1c0,0,0,0.1,0,0.1V238.6z"/>
					<path class="st2" d="M39.7,238.3c0,0.1,0.1,0.2,0.1,0.3c0,0.1,0,0.1,0,0.2c0,0-0.1,0.1-0.2,0.1c-0.1,0-0.2,0-0.4,0
						c-0.2,0-0.3,0-0.4,0c-0.1,0-0.2,0-0.2,0c-0.1,0-0.1,0-0.1-0.1c0,0,0-0.1-0.1-0.1l-0.4-1.3h-2.5l-0.4,1.3c0,0,0,0.1-0.1,0.1
						c0,0-0.1,0.1-0.1,0.1c0,0-0.1,0-0.2,0c-0.1,0-0.2,0-0.4,0c-0.2,0-0.3,0-0.4,0c-0.1,0-0.1,0-0.2-0.1c0,0,0-0.1,0-0.2
						c0-0.1,0-0.2,0.1-0.3l2-5.9c0-0.1,0-0.1,0.1-0.1c0,0,0.1-0.1,0.1-0.1c0.1,0,0.1,0,0.2,0c0.1,0,0.2,0,0.4,0c0.2,0,0.4,0,0.5,0
						c0.1,0,0.2,0,0.3,0c0.1,0,0.1,0,0.1,0.1c0,0,0.1,0.1,0.1,0.2L39.7,238.3z M36.6,233.4L36.6,233.4l-0.9,2.8h1.9L36.6,233.4z"/>
					<path class="st2" d="M45.4,238.6C45.4,238.6,45.4,238.7,45.4,238.6c0,0.1-0.1,0.1-0.1,0.2c-0.1,0-0.1,0-0.2,0
						c-0.1,0-0.2,0-0.4,0c-0.1,0-0.3,0-0.3,0c-0.1,0-0.2,0-0.2,0c0,0-0.1,0-0.1-0.1c0,0,0-0.1-0.1-0.1l-0.6-1.5
						c-0.1-0.2-0.1-0.3-0.2-0.4c-0.1-0.1-0.1-0.2-0.2-0.3c-0.1-0.1-0.2-0.2-0.3-0.2c-0.1,0-0.2-0.1-0.4-0.1h-0.4v2.5
						c0,0,0,0.1,0,0.1c0,0-0.1,0-0.1,0.1c-0.1,0-0.1,0-0.2,0c-0.1,0-0.2,0-0.3,0c-0.1,0-0.2,0-0.3,0c-0.1,0-0.2,0-0.2,0
						c-0.1,0-0.1,0-0.1-0.1c0,0,0-0.1,0-0.1v-6c0-0.1,0-0.3,0.1-0.3c0.1-0.1,0.2-0.1,0.3-0.1h1.7c0.2,0,0.3,0,0.4,0
						c0.1,0,0.2,0,0.3,0c0.3,0,0.5,0.1,0.7,0.2c0.2,0.1,0.4,0.2,0.5,0.4c0.1,0.1,0.3,0.3,0.3,0.5c0.1,0.2,0.1,0.4,0.1,0.7
						c0,0.2,0,0.4-0.1,0.6c-0.1,0.2-0.1,0.3-0.2,0.5c-0.1,0.1-0.2,0.3-0.4,0.4c-0.2,0.1-0.3,0.2-0.5,0.3c0.1,0,0.2,0.1,0.3,0.2
						c0.1,0.1,0.2,0.2,0.2,0.2c0.1,0.1,0.1,0.2,0.2,0.3c0.1,0.1,0.1,0.3,0.2,0.4l0.6,1.3c0.1,0.1,0.1,0.2,0.1,0.3
						C45.4,238.5,45.4,238.6,45.4,238.6z M43.7,234.1c0-0.2,0-0.4-0.1-0.6c-0.1-0.1-0.3-0.3-0.5-0.3c-0.1,0-0.1,0-0.2,0
						c-0.1,0-0.2,0-0.4,0h-0.6v1.9h0.7c0.2,0,0.4,0,0.5-0.1c0.1,0,0.3-0.1,0.4-0.2c0.1-0.1,0.2-0.2,0.2-0.3
						C43.7,234.4,43.7,234.3,43.7,234.1z"/>
					<path class="st2" d="M51.3,238.6C51.3,238.6,51.3,238.7,51.3,238.6c0,0.1-0.1,0.1-0.1,0.2c-0.1,0-0.1,0-0.2,0
						c-0.1,0-0.2,0-0.4,0c-0.1,0-0.3,0-0.3,0c-0.1,0-0.2,0-0.2,0c0,0-0.1,0-0.1-0.1c0,0,0-0.1-0.1-0.1l-0.6-1.5
						c-0.1-0.2-0.1-0.3-0.2-0.4c-0.1-0.1-0.1-0.2-0.2-0.3c-0.1-0.1-0.2-0.2-0.3-0.2c-0.1,0-0.2-0.1-0.4-0.1h-0.4v2.5
						c0,0,0,0.1,0,0.1c0,0-0.1,0-0.1,0.1c-0.1,0-0.1,0-0.2,0c-0.1,0-0.2,0-0.3,0c-0.1,0-0.2,0-0.3,0c-0.1,0-0.2,0-0.2,0
						c-0.1,0-0.1,0-0.1-0.1c0,0,0-0.1,0-0.1v-6c0-0.1,0-0.3,0.1-0.3c0.1-0.1,0.2-0.1,0.3-0.1h1.7c0.2,0,0.3,0,0.4,0
						c0.1,0,0.2,0,0.3,0c0.3,0,0.5,0.1,0.7,0.2c0.2,0.1,0.4,0.2,0.5,0.4c0.1,0.1,0.3,0.3,0.3,0.5c0.1,0.2,0.1,0.4,0.1,0.7
						c0,0.2,0,0.4-0.1,0.6c-0.1,0.2-0.1,0.3-0.2,0.5c-0.1,0.1-0.2,0.3-0.4,0.4c-0.2,0.1-0.3,0.2-0.5,0.3c0.1,0,0.2,0.1,0.3,0.2
						c0.1,0.1,0.2,0.2,0.2,0.2c0.1,0.1,0.1,0.2,0.2,0.3c0.1,0.1,0.1,0.3,0.2,0.4l0.6,1.3c0.1,0.1,0.1,0.2,0.1,0.3
						C51.3,238.5,51.3,238.6,51.3,238.6z M49.5,234.1c0-0.2,0-0.4-0.1-0.6c-0.1-0.1-0.3-0.3-0.5-0.3c-0.1,0-0.1,0-0.2,0
						c-0.1,0-0.2,0-0.4,0h-0.6v1.9h0.7c0.2,0,0.4,0,0.5-0.1c0.1,0,0.3-0.1,0.4-0.2c0.1-0.1,0.2-0.2,0.2-0.3
						C49.5,234.4,49.5,234.3,49.5,234.1z"/>
					<path class="st2" d="M54.9,236.3v2.3c0,0,0,0.1,0,0.1c0,0-0.1,0-0.1,0.1c-0.1,0-0.1,0-0.2,0c-0.1,0-0.2,0-0.3,0
						c-0.1,0-0.2,0-0.3,0c-0.1,0-0.2,0-0.2,0c-0.1,0-0.1,0-0.1-0.1c0,0,0-0.1,0-0.1v-2.3l-1.8-3.6c-0.1-0.1-0.1-0.2-0.1-0.3
						c0-0.1,0-0.1,0-0.2c0,0,0.1-0.1,0.2-0.1c0.1,0,0.3,0,0.4,0c0.2,0,0.3,0,0.4,0c0.1,0,0.2,0,0.2,0c0.1,0,0.1,0,0.1,0.1
						c0,0,0,0.1,0.1,0.1l0.7,1.6c0.1,0.2,0.1,0.3,0.2,0.5c0.1,0.2,0.1,0.4,0.2,0.5h0c0.1-0.2,0.1-0.4,0.2-0.5
						c0.1-0.2,0.1-0.3,0.2-0.5l0.7-1.6c0-0.1,0-0.1,0.1-0.1c0,0,0.1-0.1,0.1-0.1c0.1,0,0.1,0,0.2,0c0.1,0,0.2,0,0.4,0
						c0.2,0,0.3,0,0.5,0c0.1,0,0.2,0,0.2,0.1c0,0,0,0.1,0,0.2c0,0.1-0.1,0.2-0.1,0.3L54.9,236.3z"/>
					<path class="st2" d="M64.4,234.2c0,0.4-0.1,0.7-0.2,1c-0.1,0.3-0.3,0.5-0.5,0.7c-0.2,0.2-0.5,0.3-0.8,0.4
						c-0.3,0.1-0.7,0.2-1.1,0.2h-0.6v2.1c0,0,0,0.1,0,0.1c0,0-0.1,0-0.1,0.1c-0.1,0-0.1,0-0.2,0c-0.1,0-0.2,0-0.3,0
						c-0.1,0-0.2,0-0.3,0c-0.1,0-0.2,0-0.2,0c-0.1,0-0.1,0-0.1-0.1c0,0,0-0.1,0-0.1v-5.9c0-0.2,0-0.3,0.1-0.4
						c0.1-0.1,0.2-0.1,0.3-0.1h1.6c0.2,0,0.3,0,0.4,0c0.1,0,0.3,0,0.5,0.1c0.2,0,0.4,0.1,0.6,0.2c0.2,0.1,0.4,0.2,0.5,0.4
						c0.1,0.2,0.3,0.4,0.3,0.6C64.4,233.7,64.4,233.9,64.4,234.2z M63,234.3c0-0.2,0-0.4-0.1-0.6c-0.1-0.2-0.2-0.3-0.3-0.3
						c-0.1-0.1-0.2-0.1-0.4-0.1c-0.1,0-0.3,0-0.4,0h-0.6v2.2h0.6c0.2,0,0.4,0,0.5-0.1c0.1-0.1,0.3-0.1,0.4-0.2
						c0.1-0.1,0.2-0.2,0.2-0.4C63,234.6,63,234.4,63,234.3z"/>
					<path class="st2" d="M69.3,238.3c0,0.1,0,0.2,0,0.2c0,0.1,0,0.1,0,0.2c0,0,0,0.1-0.1,0.1c0,0-0.1,0-0.1,0h-3.3
						c-0.1,0-0.2,0-0.3-0.1c-0.1-0.1-0.1-0.2-0.1-0.3v-5.8c0-0.1,0-0.3,0.1-0.3c0.1-0.1,0.2-0.1,0.3-0.1h3.3c0,0,0.1,0,0.1,0
						c0,0,0,0,0.1,0.1c0,0,0,0.1,0,0.2c0,0.1,0,0.2,0,0.3c0,0.1,0,0.2,0,0.2c0,0.1,0,0.1,0,0.2c0,0,0,0.1-0.1,0.1c0,0-0.1,0-0.1,0
						h-2.4v1.6h2c0,0,0.1,0,0.1,0c0,0,0,0,0.1,0.1c0,0,0,0.1,0,0.2c0,0.1,0,0.1,0,0.2c0,0.1,0,0.2,0,0.2c0,0.1,0,0.1,0,0.2
						c0,0,0,0.1-0.1,0.1c0,0-0.1,0-0.1,0h-2v1.9h2.4c0,0,0.1,0,0.1,0c0,0,0,0,0.1,0.1c0,0,0,0.1,0,0.2
						C69.3,238.1,69.3,238.2,69.3,238.3z"/>
					<path class="st2" d="M75.3,238.6C75.3,238.6,75.3,238.7,75.3,238.6c0,0.1-0.1,0.1-0.1,0.2c-0.1,0-0.1,0-0.2,0
						c-0.1,0-0.2,0-0.4,0c-0.1,0-0.3,0-0.3,0c-0.1,0-0.2,0-0.2,0c0,0-0.1,0-0.1-0.1c0,0,0-0.1-0.1-0.1l-0.6-1.5
						c-0.1-0.2-0.1-0.3-0.2-0.4c-0.1-0.1-0.1-0.2-0.2-0.3c-0.1-0.1-0.2-0.2-0.3-0.2c-0.1,0-0.2-0.1-0.4-0.1h-0.4v2.5
						c0,0,0,0.1,0,0.1c0,0-0.1,0-0.1,0.1c-0.1,0-0.1,0-0.2,0c-0.1,0-0.2,0-0.3,0c-0.1,0-0.2,0-0.3,0c-0.1,0-0.2,0-0.2,0
						c-0.1,0-0.1,0-0.1-0.1c0,0,0-0.1,0-0.1v-6c0-0.1,0-0.3,0.1-0.3c0.1-0.1,0.2-0.1,0.3-0.1h1.7c0.2,0,0.3,0,0.4,0
						c0.1,0,0.2,0,0.3,0c0.3,0,0.5,0.1,0.7,0.2c0.2,0.1,0.4,0.2,0.5,0.4c0.1,0.1,0.3,0.3,0.3,0.5c0.1,0.2,0.1,0.4,0.1,0.7
						c0,0.2,0,0.4-0.1,0.6c-0.1,0.2-0.1,0.3-0.2,0.5c-0.1,0.1-0.2,0.3-0.4,0.4c-0.2,0.1-0.3,0.2-0.5,0.3c0.1,0,0.2,0.1,0.3,0.2
						c0.1,0.1,0.2,0.2,0.2,0.2c0.1,0.1,0.1,0.2,0.2,0.3c0.1,0.1,0.1,0.3,0.2,0.4l0.6,1.3c0.1,0.1,0.1,0.2,0.1,0.3
						C75.3,238.5,75.3,238.6,75.3,238.6z M73.6,234.1c0-0.2,0-0.4-0.1-0.6c-0.1-0.1-0.3-0.3-0.5-0.3c-0.1,0-0.1,0-0.2,0
						c-0.1,0-0.2,0-0.4,0h-0.6v1.9h0.7c0.2,0,0.4,0,0.5-0.1c0.1,0,0.3-0.1,0.4-0.2c0.1-0.1,0.2-0.2,0.2-0.3
						C73.6,234.4,73.6,234.3,73.6,234.1z"/>
					<path class="st2" d="M81.1,238.6C81.1,238.6,81.1,238.6,81.1,238.6c0,0.1-0.1,0.2-0.1,0.2c-0.1,0-0.1,0-0.2,0
						c-0.1,0-0.2,0-0.3,0c-0.2,0-0.4,0-0.5,0c-0.1,0-0.2,0-0.2-0.1c0,0-0.1-0.1-0.1-0.1l-2-3.1v3.1c0,0,0,0.1,0,0.1
						c0,0-0.1,0-0.1,0.1c-0.1,0-0.1,0-0.2,0c-0.1,0-0.2,0-0.3,0c-0.1,0-0.2,0-0.3,0c-0.1,0-0.2,0-0.2,0c-0.1,0-0.1,0-0.1-0.1
						c0,0,0-0.1,0-0.1v-6.2c0,0,0-0.1,0-0.1c0,0,0.1,0,0.1-0.1c0.1,0,0.1,0,0.2,0c0.1,0,0.2,0,0.3,0c0.1,0,0.2,0,0.3,0
						c0.1,0,0.2,0,0.2,0c0.1,0,0.1,0,0.1,0.1c0,0,0,0.1,0,0.1v2.8l1.9-2.8c0,0,0.1-0.1,0.1-0.1c0,0,0.1-0.1,0.1-0.1
						c0.1,0,0.1,0,0.2,0c0.1,0,0.2,0,0.3,0c0.1,0,0.2,0,0.3,0c0.1,0,0.2,0,0.2,0c0.1,0,0.1,0,0.1,0.1c0,0,0,0.1,0,0.1
						c0,0.1,0,0.1,0,0.2c0,0.1-0.1,0.2-0.2,0.3l-1.8,2.4l2,3c0.1,0.1,0.1,0.2,0.1,0.3C81.1,238.5,81.1,238.6,81.1,238.6z"/>
					<path class="st2" d="M83.3,238.6C83.3,238.6,83.3,238.7,83.3,238.6c-0.1,0.1-0.1,0.1-0.1,0.2c-0.1,0-0.1,0-0.2,0
						c-0.1,0-0.2,0-0.3,0c-0.1,0-0.2,0-0.3,0c-0.1,0-0.2,0-0.2,0c-0.1,0-0.1,0-0.1-0.1c0,0,0-0.1,0-0.1v-6.2c0,0,0-0.1,0-0.1
						c0,0,0.1,0,0.1-0.1c0.1,0,0.1,0,0.2,0c0.1,0,0.2,0,0.3,0c0.1,0,0.2,0,0.3,0c0.1,0,0.2,0,0.2,0c0.1,0,0.1,0,0.1,0.1
						c0,0,0,0.1,0,0.1V238.6z"/>
					<path class="st2" d="M90.1,238.3c0,0.1,0,0.1,0,0.2c0,0.1-0.1,0.1-0.1,0.2c0,0-0.1,0.1-0.2,0.1c-0.1,0-0.1,0-0.2,0H89
						c-0.1,0-0.2,0-0.3,0c-0.1,0-0.2-0.1-0.2-0.1c-0.1-0.1-0.1-0.1-0.2-0.3c-0.1-0.1-0.1-0.2-0.2-0.4l-1.6-3.1
						c-0.1-0.2-0.2-0.4-0.3-0.6c-0.1-0.2-0.2-0.4-0.3-0.6h0c0,0.2,0,0.5,0,0.7c0,0.2,0,0.5,0,0.8v3.5c0,0,0,0.1,0,0.1
						c0,0-0.1,0-0.1,0.1c0,0-0.1,0-0.2,0c-0.1,0-0.2,0-0.3,0c-0.1,0-0.2,0-0.3,0c-0.1,0-0.1,0-0.2,0c0,0-0.1,0-0.1-0.1
						c0,0,0-0.1,0-0.1v-5.9c0-0.2,0-0.3,0.1-0.4c0.1-0.1,0.2-0.1,0.3-0.1h0.7c0.1,0,0.2,0,0.3,0c0.1,0,0.2,0.1,0.2,0.1
						c0.1,0.1,0.1,0.1,0.2,0.2c0.1,0.1,0.1,0.2,0.2,0.3l1.3,2.4c0.1,0.1,0.1,0.3,0.2,0.4c0.1,0.1,0.1,0.3,0.2,0.4
						c0.1,0.1,0.1,0.3,0.2,0.4c0.1,0.1,0.1,0.3,0.2,0.4h0c0-0.2,0-0.5,0-0.7c0-0.3,0-0.5,0-0.7v-3.1c0,0,0-0.1,0-0.1
						c0,0,0.1-0.1,0.1-0.1c0,0,0.1,0,0.2,0c0.1,0,0.2,0,0.3,0c0.1,0,0.2,0,0.3,0c0.1,0,0.1,0,0.2,0c0,0,0.1,0,0.1,0.1
						c0,0,0,0.1,0,0.1V238.3z"/>
					<path class="st2" d="M95.4,236.8c0,0.3-0.1,0.7-0.2,0.9c-0.1,0.3-0.3,0.5-0.5,0.7c-0.2,0.2-0.5,0.3-0.8,0.4
						c-0.3,0.1-0.6,0.1-0.9,0.1c-0.2,0-0.4,0-0.6-0.1c-0.2,0-0.4-0.1-0.5-0.1c-0.2-0.1-0.3-0.1-0.4-0.2c-0.1-0.1-0.2-0.1-0.2-0.2
						c0,0-0.1-0.1-0.1-0.2c0-0.1,0-0.2,0-0.4c0-0.1,0-0.2,0-0.3c0-0.1,0-0.1,0-0.2c0,0,0-0.1,0.1-0.1c0,0,0.1,0,0.1,0
						c0,0,0.1,0,0.2,0.1c0.1,0.1,0.2,0.1,0.3,0.2c0.1,0.1,0.3,0.1,0.5,0.2c0.2,0.1,0.4,0.1,0.7,0.1c0.2,0,0.3,0,0.4-0.1
						c0.1,0,0.2-0.1,0.3-0.2c0.1-0.1,0.2-0.2,0.2-0.3c0-0.1,0.1-0.2,0.1-0.4c0-0.2,0-0.3-0.1-0.4c-0.1-0.1-0.2-0.2-0.3-0.3
						c-0.1-0.1-0.3-0.2-0.4-0.2c-0.2-0.1-0.3-0.2-0.5-0.2c-0.2-0.1-0.3-0.2-0.5-0.3c-0.2-0.1-0.3-0.2-0.4-0.4
						c-0.1-0.1-0.2-0.3-0.3-0.5c-0.1-0.2-0.1-0.4-0.1-0.7c0-0.3,0.1-0.6,0.2-0.8c0.1-0.2,0.3-0.4,0.5-0.6c0.2-0.2,0.4-0.3,0.7-0.4
						c0.3-0.1,0.6-0.1,0.9-0.1c0.2,0,0.3,0,0.5,0c0.2,0,0.3,0.1,0.4,0.1c0.1,0,0.3,0.1,0.4,0.1c0.1,0.1,0.2,0.1,0.2,0.1
						c0,0,0.1,0.1,0.1,0.1c0,0,0,0.1,0,0.1c0,0,0,0.1,0,0.1c0,0.1,0,0.1,0,0.2c0,0.1,0,0.2,0,0.3c0,0.1,0,0.1,0,0.2
						c0,0,0,0.1-0.1,0.1c0,0-0.1,0-0.1,0c0,0-0.1,0-0.2-0.1c-0.1,0-0.2-0.1-0.3-0.2c-0.1-0.1-0.3-0.1-0.4-0.2
						c-0.2,0-0.3-0.1-0.5-0.1c-0.1,0-0.3,0-0.4,0.1c-0.1,0-0.2,0.1-0.3,0.1c-0.1,0.1-0.1,0.1-0.2,0.2c0,0.1-0.1,0.2-0.1,0.3
						c0,0.1,0,0.3,0.1,0.4c0.1,0.1,0.2,0.2,0.3,0.3c0.1,0.1,0.3,0.2,0.5,0.2c0.2,0.1,0.3,0.2,0.5,0.2c0.2,0.1,0.4,0.2,0.5,0.3
						c0.2,0.1,0.3,0.2,0.5,0.4c0.1,0.1,0.2,0.3,0.3,0.5C95.4,236.3,95.4,236.5,95.4,236.8z"/>
					<path class="st2" d="M100.1,238.6C100.1,238.6,100,238.7,100.1,238.6c-0.1,0.1-0.1,0.1-0.1,0.2c-0.1,0-0.1,0-0.2,0
						c-0.1,0-0.2,0-0.3,0c-0.1,0-0.2,0-0.3,0c-0.1,0-0.2,0-0.2,0c-0.1,0-0.1,0-0.1-0.1c0,0,0-0.1,0-0.1v-6.2c0,0,0-0.1,0-0.1
						c0,0,0.1,0,0.1-0.1c0.1,0,0.1,0,0.2,0c0.1,0,0.2,0,0.3,0c0.1,0,0.2,0,0.3,0c0.1,0,0.2,0,0.2,0c0.1,0,0.1,0,0.1,0.1
						c0,0,0,0.1,0,0.1V238.6z"/>
					<path class="st2" d="M106.9,238.3c0,0.1,0,0.1,0,0.2c0,0.1-0.1,0.1-0.1,0.2c0,0-0.1,0.1-0.2,0.1c-0.1,0-0.1,0-0.2,0h-0.6
						c-0.1,0-0.2,0-0.3,0c-0.1,0-0.2-0.1-0.2-0.1c-0.1-0.1-0.1-0.1-0.2-0.3c-0.1-0.1-0.1-0.2-0.2-0.4l-1.6-3.1
						c-0.1-0.2-0.2-0.4-0.3-0.6c-0.1-0.2-0.2-0.4-0.3-0.6h0c0,0.2,0,0.5,0,0.7c0,0.2,0,0.5,0,0.8v3.5c0,0,0,0.1,0,0.1
						c0,0-0.1,0-0.1,0.1c0,0-0.1,0-0.2,0c-0.1,0-0.2,0-0.3,0c-0.1,0-0.2,0-0.3,0c-0.1,0-0.1,0-0.2,0c0,0-0.1,0-0.1-0.1
						c0,0,0-0.1,0-0.1v-5.9c0-0.2,0-0.3,0.1-0.4c0.1-0.1,0.2-0.1,0.3-0.1h0.7c0.1,0,0.2,0,0.3,0c0.1,0,0.2,0.1,0.2,0.1
						c0.1,0.1,0.1,0.1,0.2,0.2c0.1,0.1,0.1,0.2,0.2,0.3l1.3,2.4c0.1,0.1,0.1,0.3,0.2,0.4c0.1,0.1,0.1,0.3,0.2,0.4
						c0.1,0.1,0.1,0.3,0.2,0.4c0.1,0.1,0.1,0.3,0.2,0.4h0c0-0.2,0-0.5,0-0.7c0-0.3,0-0.5,0-0.7v-3.1c0,0,0-0.1,0-0.1
						c0,0,0.1-0.1,0.1-0.1c0,0,0.1,0,0.2,0c0.1,0,0.2,0,0.3,0c0.1,0,0.2,0,0.3,0c0.1,0,0.1,0,0.2,0c0,0,0.1,0,0.1,0.1
						c0,0,0,0.1,0,0.1V238.3z"/>
					<path class="st2" d="M112.2,236.8c0,0.3-0.1,0.7-0.2,0.9c-0.1,0.3-0.3,0.5-0.5,0.7c-0.2,0.2-0.5,0.3-0.8,0.4
						c-0.3,0.1-0.6,0.1-0.9,0.1c-0.2,0-0.4,0-0.6-0.1c-0.2,0-0.4-0.1-0.5-0.1c-0.2-0.1-0.3-0.1-0.4-0.2c-0.1-0.1-0.2-0.1-0.2-0.2
						c0,0-0.1-0.1-0.1-0.2c0-0.1,0-0.2,0-0.4c0-0.1,0-0.2,0-0.3c0-0.1,0-0.1,0-0.2c0,0,0-0.1,0.1-0.1c0,0,0.1,0,0.1,0
						c0,0,0.1,0,0.2,0.1c0.1,0.1,0.2,0.1,0.3,0.2c0.1,0.1,0.3,0.1,0.5,0.2c0.2,0.1,0.4,0.1,0.7,0.1c0.2,0,0.3,0,0.4-0.1
						c0.1,0,0.2-0.1,0.3-0.2c0.1-0.1,0.2-0.2,0.2-0.3c0-0.1,0.1-0.2,0.1-0.4c0-0.2,0-0.3-0.1-0.4c-0.1-0.1-0.2-0.2-0.3-0.3
						c-0.1-0.1-0.3-0.2-0.4-0.2c-0.2-0.1-0.3-0.2-0.5-0.2c-0.2-0.1-0.3-0.2-0.5-0.3c-0.2-0.1-0.3-0.2-0.4-0.4
						c-0.1-0.1-0.2-0.3-0.3-0.5c-0.1-0.2-0.1-0.4-0.1-0.7c0-0.3,0.1-0.6,0.2-0.8c0.1-0.2,0.3-0.4,0.5-0.6c0.2-0.2,0.4-0.3,0.7-0.4
						c0.3-0.1,0.6-0.1,0.9-0.1c0.2,0,0.3,0,0.5,0c0.2,0,0.3,0.1,0.4,0.1s0.3,0.1,0.4,0.1c0.1,0.1,0.2,0.1,0.2,0.1
						c0,0,0.1,0.1,0.1,0.1c0,0,0,0.1,0,0.1c0,0,0,0.1,0,0.1c0,0.1,0,0.1,0,0.2c0,0.1,0,0.2,0,0.3c0,0.1,0,0.1,0,0.2
						c0,0,0,0.1-0.1,0.1c0,0-0.1,0-0.1,0c0,0-0.1,0-0.2-0.1c-0.1,0-0.2-0.1-0.3-0.2c-0.1-0.1-0.3-0.1-0.4-0.2
						c-0.2,0-0.3-0.1-0.5-0.1c-0.1,0-0.3,0-0.4,0.1c-0.1,0-0.2,0.1-0.3,0.1c-0.1,0.1-0.1,0.1-0.2,0.2c0,0.1-0.1,0.2-0.1,0.3
						c0,0.1,0,0.3,0.1,0.4c0.1,0.1,0.2,0.2,0.3,0.3c0.1,0.1,0.3,0.2,0.5,0.2c0.2,0.1,0.3,0.2,0.5,0.2c0.2,0.1,0.4,0.2,0.5,0.3
						c0.2,0.1,0.3,0.2,0.5,0.4c0.1,0.1,0.2,0.3,0.3,0.5C112.2,236.3,112.2,236.5,112.2,236.8z"/>
					<path class="st2" d="M117.6,232.7c0,0.1,0,0.2,0,0.3c0,0.1,0,0.1,0,0.2c0,0,0,0.1-0.1,0.1c0,0-0.1,0-0.1,0h-1.7v5.3
						c0,0,0,0.1,0,0.1c0,0-0.1,0-0.1,0.1c-0.1,0-0.1,0-0.2,0c-0.1,0-0.2,0-0.3,0c-0.1,0-0.2,0-0.3,0c-0.1,0-0.2,0-0.2,0
						c-0.1,0-0.1,0-0.1-0.1c0,0,0-0.1,0-0.1v-5.3h-1.7c0,0-0.1,0-0.1,0c0,0,0-0.1-0.1-0.1c0,0,0-0.1,0-0.2c0-0.1,0-0.2,0-0.3
						c0-0.1,0-0.2,0-0.3c0-0.1,0-0.1,0-0.2c0,0,0-0.1,0.1-0.1c0,0,0.1,0,0.1,0h4.7c0,0,0.1,0,0.1,0c0,0,0,0,0.1,0.1c0,0,0,0.1,0,0.2
						C117.6,232.5,117.6,232.6,117.6,232.7z"/>
					<path class="st2" d="M119.6,238.6C119.6,238.6,119.6,238.7,119.6,238.6c-0.1,0.1-0.1,0.1-0.1,0.2c-0.1,0-0.1,0-0.2,0
						c-0.1,0-0.2,0-0.3,0c-0.1,0-0.2,0-0.3,0c-0.1,0-0.2,0-0.2,0c-0.1,0-0.1,0-0.1-0.1c0,0,0-0.1,0-0.1v-6.2c0,0,0-0.1,0-0.1
						c0,0,0.1,0,0.1-0.1c0.1,0,0.1,0,0.2,0c0.1,0,0.2,0,0.3,0c0.1,0,0.2,0,0.3,0c0.1,0,0.2,0,0.2,0c0.1,0,0.1,0,0.1,0.1
						c0,0,0,0.1,0,0.1V238.6z"/>
					<path class="st2" d="M125.4,232.7c0,0.1,0,0.2,0,0.3c0,0.1,0,0.1,0,0.2c0,0,0,0.1-0.1,0.1c0,0-0.1,0-0.1,0h-1.7v5.3
						c0,0,0,0.1,0,0.1c0,0-0.1,0-0.1,0.1c-0.1,0-0.1,0-0.2,0c-0.1,0-0.2,0-0.3,0c-0.1,0-0.2,0-0.3,0c-0.1,0-0.2,0-0.2,0
						c-0.1,0-0.1,0-0.1-0.1c0,0,0-0.1,0-0.1v-5.3h-1.7c0,0-0.1,0-0.1,0c0,0,0-0.1-0.1-0.1c0,0,0-0.1,0-0.2c0-0.1,0-0.2,0-0.3
						c0-0.1,0-0.2,0-0.3c0-0.1,0-0.1,0-0.2c0,0,0-0.1,0.1-0.1c0,0,0.1,0,0.1,0h4.7c0,0,0.1,0,0.1,0c0,0,0,0,0.1,0.1c0,0,0,0.1,0,0.2
						C125.4,232.5,125.4,232.6,125.4,232.7z"/>
					<path class="st2" d="M131.5,236.3c0,0.4-0.1,0.8-0.2,1.1c-0.1,0.3-0.3,0.6-0.5,0.8c-0.2,0.2-0.5,0.4-0.9,0.5
						c-0.3,0.1-0.7,0.2-1.2,0.2c-0.4,0-0.8-0.1-1.1-0.2c-0.3-0.1-0.6-0.3-0.8-0.5c-0.2-0.2-0.4-0.5-0.5-0.8
						c-0.1-0.3-0.2-0.7-0.2-1.1v-4c0,0,0-0.1,0-0.1c0,0,0.1,0,0.1-0.1c0.1,0,0.1,0,0.2,0c0.1,0,0.2,0,0.3,0c0.1,0,0.2,0,0.3,0
						c0.1,0,0.2,0,0.2,0c0.1,0,0.1,0,0.1,0.1c0,0,0,0.1,0,0.1v3.9c0,0.3,0,0.5,0.1,0.7c0.1,0.2,0.2,0.4,0.3,0.5
						c0.1,0.1,0.3,0.2,0.4,0.3c0.2,0.1,0.4,0.1,0.6,0.1c0.2,0,0.4,0,0.6-0.1c0.2-0.1,0.3-0.2,0.4-0.3c0.1-0.1,0.2-0.3,0.3-0.5
						c0.1-0.2,0.1-0.4,0.1-0.6v-4c0,0,0-0.1,0-0.1c0,0,0.1,0,0.1-0.1c0.1,0,0.1,0,0.2,0c0.1,0,0.2,0,0.3,0c0.1,0,0.2,0,0.3,0
						c0.1,0,0.2,0,0.2,0c0.1,0,0.1,0,0.1,0.1c0,0,0,0.1,0,0.1V236.3z"/>
					<path class="st2" d="M137.3,232.7c0,0.1,0,0.2,0,0.3c0,0.1,0,0.1,0,0.2c0,0,0,0.1-0.1,0.1c0,0-0.1,0-0.1,0h-1.7v5.3
						c0,0,0,0.1,0,0.1c0,0-0.1,0-0.1,0.1c-0.1,0-0.1,0-0.2,0c-0.1,0-0.2,0-0.3,0c-0.1,0-0.2,0-0.3,0c-0.1,0-0.2,0-0.2,0
						c-0.1,0-0.1,0-0.1-0.1c0,0,0-0.1,0-0.1v-5.3h-1.7c0,0-0.1,0-0.1,0c0,0,0-0.1-0.1-0.1c0,0,0-0.1,0-0.2c0-0.1,0-0.2,0-0.3
						c0-0.1,0-0.2,0-0.3c0-0.1,0-0.1,0-0.2c0,0,0-0.1,0.1-0.1c0,0,0.1,0,0.1,0h4.7c0,0,0.1,0,0.1,0c0,0,0,0,0.1,0.1c0,0,0,0.1,0,0.2
						C137.3,232.5,137.3,232.6,137.3,232.7z"/>
					<path class="st2" d="M142,238.3c0,0.1,0,0.2,0,0.2c0,0.1,0,0.1,0,0.2s0,0.1-0.1,0.1c0,0-0.1,0-0.1,0h-3.3c-0.1,0-0.2,0-0.3-0.1
						c-0.1-0.1-0.1-0.2-0.1-0.3v-5.8c0-0.1,0-0.3,0.1-0.3c0.1-0.1,0.2-0.1,0.3-0.1h3.3c0,0,0.1,0,0.1,0c0,0,0,0,0.1,0.1
						c0,0,0,0.1,0,0.2c0,0.1,0,0.2,0,0.3c0,0.1,0,0.2,0,0.2c0,0.1,0,0.1,0,0.2c0,0,0,0.1-0.1,0.1c0,0-0.1,0-0.1,0h-2.4v1.6h2
						c0,0,0.1,0,0.1,0c0,0,0,0,0.1,0.1c0,0,0,0.1,0,0.2c0,0.1,0,0.1,0,0.2c0,0.1,0,0.2,0,0.2c0,0.1,0,0.1,0,0.2c0,0,0,0.1-0.1,0.1
						c0,0-0.1,0-0.1,0h-2v1.9h2.4c0,0,0.1,0,0.1,0c0,0,0,0,0.1,0.1c0,0,0,0.1,0,0.2C142,238.1,142,238.2,142,238.3z"/>
				</g>
				<g>
					<path class="st2" d="M47.8,245.9c0,0.5-0.1,0.9-0.2,1.2c-0.1,0.4-0.3,0.7-0.5,0.9c-0.2,0.3-0.5,0.4-0.8,0.6
						c-0.3,0.1-0.7,0.2-1.2,0.2c-0.4,0-0.8-0.1-1.1-0.2c-0.3-0.1-0.6-0.3-0.8-0.5c-0.2-0.2-0.4-0.5-0.5-0.9
						c-0.1-0.4-0.2-0.8-0.2-1.3c0-0.5,0.1-0.9,0.2-1.2c0.1-0.4,0.3-0.7,0.5-0.9c0.2-0.3,0.5-0.4,0.8-0.6c0.3-0.1,0.7-0.2,1.2-0.2
						c0.4,0,0.8,0.1,1.1,0.2c0.3,0.1,0.6,0.3,0.8,0.5c0.2,0.2,0.4,0.5,0.5,0.9C47.8,245,47.8,245.4,47.8,245.9z M46.6,246
						c0-0.3,0-0.6-0.1-0.8c0-0.2-0.1-0.4-0.2-0.6c-0.1-0.2-0.3-0.3-0.4-0.4c-0.2-0.1-0.4-0.1-0.7-0.1c-0.3,0-0.5,0.1-0.7,0.2
						c-0.2,0.1-0.3,0.2-0.5,0.4c-0.1,0.2-0.2,0.4-0.2,0.6c0,0.2-0.1,0.5-0.1,0.7c0,0.3,0,0.6,0.1,0.8c0,0.2,0.1,0.4,0.2,0.6
						c0.1,0.2,0.3,0.3,0.4,0.4c0.2,0.1,0.4,0.1,0.7,0.1c0.3,0,0.5-0.1,0.7-0.2c0.2-0.1,0.3-0.2,0.5-0.4c0.1-0.2,0.2-0.4,0.2-0.6
						C46.6,246.5,46.6,246.2,46.6,246z"/>
					<path class="st2" d="M51.9,243.6c0,0.1,0,0.2,0,0.2c0,0.1,0,0.1,0,0.1c0,0,0,0.1-0.1,0.1c0,0,0,0-0.1,0h-1.8v1.5h1.7
						c0,0,0,0,0.1,0c0,0,0,0,0.1,0.1c0,0,0,0.1,0,0.1c0,0.1,0,0.1,0,0.2c0,0.1,0,0.2,0,0.2c0,0.1,0,0.1,0,0.1c0,0,0,0.1-0.1,0.1
						c0,0,0,0-0.1,0h-1.7v2.1c0,0,0,0.1,0,0.1c0,0,0,0-0.1,0.1c0,0-0.1,0-0.2,0c-0.1,0-0.2,0-0.3,0c-0.1,0-0.2,0-0.3,0
						c-0.1,0-0.1,0-0.2,0c0,0-0.1,0-0.1-0.1c0,0,0-0.1,0-0.1v-5c0-0.1,0-0.2,0.1-0.3c0.1-0.1,0.1-0.1,0.2-0.1h2.6c0,0,0,0,0.1,0
						c0,0,0,0,0.1,0.1c0,0,0,0.1,0,0.1C51.9,243.5,51.9,243.6,51.9,243.6z"/>
					<path class="st2" d="M61.2,248.6C61.2,248.6,61.1,248.6,61.2,248.6c0,0.1-0.1,0.1-0.1,0.1c0,0-0.1,0-0.2,0c-0.1,0-0.2,0-0.3,0
						c-0.1,0-0.2,0-0.3,0c-0.1,0-0.1,0-0.2,0s-0.1,0-0.1-0.1c0,0,0,0,0-0.1v-4.5h0l-1.6,4.5c0,0,0,0.1-0.1,0.1c0,0-0.1,0-0.1,0.1
						c0,0-0.1,0-0.2,0c-0.1,0-0.2,0-0.2,0c-0.1,0-0.2,0-0.2,0c-0.1,0-0.1,0-0.2,0c0,0-0.1,0-0.1-0.1c0,0,0-0.1-0.1-0.1l-1.6-4.5h0
						v4.5c0,0,0,0.1,0,0.1c0,0,0,0-0.1,0.1c0,0-0.1,0-0.2,0c-0.1,0-0.2,0-0.3,0c-0.1,0-0.2,0-0.3,0c-0.1,0-0.1,0-0.2,0
						c0,0-0.1,0-0.1-0.1c0,0,0,0,0-0.1v-5c0-0.1,0-0.3,0.1-0.3c0.1-0.1,0.2-0.1,0.3-0.1h0.7c0.1,0,0.2,0,0.3,0
						c0.1,0,0.2,0.1,0.2,0.1c0.1,0.1,0.1,0.1,0.2,0.2c0,0.1,0.1,0.2,0.1,0.3l1.2,3.3h0l1.2-3.3c0-0.1,0.1-0.2,0.1-0.3
						c0-0.1,0.1-0.2,0.2-0.2c0.1-0.1,0.1-0.1,0.2-0.1c0.1,0,0.2,0,0.3,0h0.8c0.1,0,0.1,0,0.2,0c0.1,0,0.1,0,0.1,0.1
						c0,0,0.1,0.1,0.1,0.1c0,0.1,0,0.1,0,0.2V248.6z"/>
					<path class="st2" d="M65.6,248.3c0,0.1,0,0.2,0,0.2c0,0.1,0,0.1,0,0.1c0,0,0,0.1-0.1,0.1c0,0,0,0-0.1,0h-2.8
						c-0.1,0-0.2,0-0.2-0.1c-0.1-0.1-0.1-0.1-0.1-0.3v-4.8c0-0.1,0-0.2,0.1-0.3c0.1-0.1,0.1-0.1,0.2-0.1h2.8c0,0,0,0,0.1,0
						c0,0,0,0,0.1,0.1c0,0,0,0.1,0,0.1c0,0.1,0,0.1,0,0.2c0,0.1,0,0.1,0,0.2c0,0.1,0,0.1,0,0.1c0,0,0,0.1-0.1,0.1c0,0,0,0-0.1,0h-2
						v1.4h1.7c0,0,0,0,0.1,0c0,0,0,0,0.1,0.1c0,0,0,0.1,0,0.1c0,0.1,0,0.1,0,0.2c0,0.1,0,0.2,0,0.2c0,0.1,0,0.1,0,0.1
						c0,0,0,0.1-0.1,0.1c0,0,0,0-0.1,0h-1.7v1.6h2c0,0,0,0,0.1,0c0,0,0,0,0.1,0.1c0,0,0,0.1,0,0.1C65.6,248.1,65.6,248.2,65.6,248.3
						z"/>
					<path class="st2" d="M71.2,245.9c0,0.5-0.1,0.9-0.2,1.3c-0.1,0.4-0.3,0.7-0.6,0.9c-0.2,0.2-0.6,0.4-0.9,0.5
						c-0.4,0.1-0.8,0.2-1.3,0.2h-1.3c-0.1,0-0.2,0-0.2-0.1c-0.1-0.1-0.1-0.1-0.1-0.3v-4.8c0-0.1,0-0.2,0.1-0.3
						c0.1-0.1,0.1-0.1,0.2-0.1h1.4c0.5,0,0.9,0.1,1.3,0.2c0.3,0.1,0.6,0.3,0.9,0.5c0.2,0.2,0.4,0.5,0.5,0.8
						C71.1,245,71.2,245.4,71.2,245.9z M70,245.9c0-0.3,0-0.5-0.1-0.7c-0.1-0.2-0.2-0.4-0.3-0.6c-0.1-0.2-0.3-0.3-0.5-0.4
						c-0.2-0.1-0.5-0.1-0.8-0.1h-0.6v3.8h0.6c0.3,0,0.6,0,0.8-0.1c0.2-0.1,0.4-0.2,0.5-0.4c0.1-0.2,0.2-0.4,0.3-0.6
						C70,246.5,70,246.2,70,245.9z"/>
					<path class="st2" d="M73.2,248.6C73.2,248.6,73.2,248.6,73.2,248.6c0,0.1-0.1,0.1-0.1,0.1c0,0-0.1,0-0.2,0c-0.1,0-0.2,0-0.3,0
						c-0.1,0-0.2,0-0.3,0c-0.1,0-0.1,0-0.2,0c0,0-0.1,0-0.1-0.1c0,0,0,0,0-0.1v-5.3c0,0,0-0.1,0-0.1c0,0,0.1,0,0.1-0.1
						c0,0,0.1,0,0.2,0c0.1,0,0.2,0,0.3,0c0.1,0,0.2,0,0.3,0c0.1,0,0.1,0,0.2,0c0,0,0.1,0,0.1,0.1c0,0,0,0,0,0.1V248.6z"/>
					<path class="st2" d="M78.2,247.9c0,0.1,0,0.1,0,0.2c0,0.1,0,0.1,0,0.1c0,0,0,0.1,0,0.1c0,0,0,0.1-0.1,0.1s-0.1,0.1-0.2,0.1
						c-0.1,0.1-0.2,0.1-0.3,0.1c-0.1,0-0.3,0.1-0.4,0.1c-0.2,0-0.3,0-0.5,0c-0.4,0-0.7-0.1-1-0.2c-0.3-0.1-0.6-0.3-0.8-0.5
						c-0.2-0.2-0.4-0.5-0.5-0.9c-0.1-0.3-0.2-0.8-0.2-1.2c0-0.5,0.1-0.9,0.2-1.3c0.1-0.4,0.3-0.7,0.5-0.9c0.2-0.2,0.5-0.4,0.8-0.6
						c0.3-0.1,0.7-0.2,1-0.2c0.2,0,0.3,0,0.4,0c0.1,0,0.3,0.1,0.4,0.1c0.1,0,0.2,0.1,0.3,0.1c0.1,0.1,0.2,0.1,0.2,0.1
						c0,0,0.1,0.1,0.1,0.1c0,0,0,0.1,0,0.1c0,0,0,0.1,0,0.1c0,0.1,0,0.1,0,0.2c0,0.1,0,0.2,0,0.2c0,0.1,0,0.1,0,0.1
						c0,0,0,0.1-0.1,0.1c0,0,0,0-0.1,0c0,0-0.1,0-0.2-0.1c-0.1-0.1-0.2-0.1-0.3-0.2c-0.1-0.1-0.2-0.1-0.4-0.2
						c-0.1-0.1-0.3-0.1-0.5-0.1c-0.2,0-0.4,0-0.6,0.1c-0.2,0.1-0.3,0.2-0.4,0.4c-0.1,0.2-0.2,0.4-0.3,0.6c-0.1,0.2-0.1,0.5-0.1,0.8
						c0,0.3,0,0.6,0.1,0.8c0.1,0.2,0.2,0.4,0.3,0.6c0.1,0.2,0.3,0.3,0.5,0.3c0.2,0.1,0.4,0.1,0.6,0.1c0.2,0,0.4,0,0.5-0.1
						c0.1,0,0.3-0.1,0.4-0.2c0.1-0.1,0.2-0.1,0.3-0.2c0.1,0,0.1-0.1,0.2-0.1c0,0,0.1,0,0.1,0c0,0,0,0,0,0.1c0,0,0,0.1,0,0.1
						C78.2,247.7,78.2,247.8,78.2,247.9z"/>
					<path class="st2" d="M83.5,248.3c0,0.1,0.1,0.2,0.1,0.2c0,0.1,0,0.1,0,0.1c0,0-0.1,0-0.2,0.1c-0.1,0-0.2,0-0.3,0
						c-0.1,0-0.3,0-0.3,0c-0.1,0-0.1,0-0.2,0c0,0-0.1,0-0.1-0.1c0,0,0-0.1,0-0.1l-0.4-1.1H80l-0.4,1.1c0,0,0,0.1,0,0.1
						c0,0,0,0-0.1,0.1c0,0-0.1,0-0.2,0c-0.1,0-0.2,0-0.3,0c-0.1,0-0.2,0-0.3,0c-0.1,0-0.1,0-0.2-0.1c0,0,0-0.1,0-0.1s0-0.1,0.1-0.2
						l1.7-4.9c0,0,0-0.1,0.1-0.1c0,0,0.1-0.1,0.1-0.1c0,0,0.1,0,0.2,0c0.1,0,0.2,0,0.4,0c0.2,0,0.3,0,0.4,0c0.1,0,0.2,0,0.2,0
						c0.1,0,0.1,0,0.1,0.1c0,0,0,0.1,0.1,0.1L83.5,248.3z M81,244.2L81,244.2l-0.8,2.4h1.6L81,244.2z"/>
					<path class="st2" d="M87.3,248.3c0,0.1,0,0.2,0,0.2c0,0.1,0,0.1,0,0.1c0,0,0,0.1-0.1,0.1c0,0,0,0-0.1,0h-2.5
						c-0.1,0-0.2,0-0.2-0.1c-0.1-0.1-0.1-0.1-0.1-0.3v-5c0,0,0-0.1,0-0.1c0,0,0,0,0.1-0.1c0,0,0.1,0,0.2,0c0.1,0,0.2,0,0.3,0
						c0.1,0,0.2,0,0.3,0c0.1,0,0.1,0,0.2,0c0,0,0.1,0,0.1,0.1c0,0,0,0,0,0.1v4.5h1.7c0,0,0.1,0,0.1,0c0,0,0,0,0.1,0.1
						c0,0,0,0.1,0,0.1C87.3,248.1,87.3,248.2,87.3,248.3z"/>
					<path class="st2" d="M94,248.6C94,248.6,94,248.7,94,248.6c0,0.1-0.1,0.1-0.1,0.1c0,0-0.1,0-0.2,0c-0.1,0-0.2,0-0.3,0
						c-0.1,0-0.2,0-0.3,0c-0.1,0-0.1,0-0.2,0c0,0-0.1,0-0.1-0.1c0,0,0-0.1,0-0.1l-0.5-1.2c-0.1-0.1-0.1-0.3-0.2-0.4
						c-0.1-0.1-0.1-0.2-0.2-0.3c-0.1-0.1-0.2-0.1-0.2-0.2c-0.1,0-0.2-0.1-0.3-0.1H91v2.1c0,0,0,0.1,0,0.1c0,0,0,0-0.1,0.1
						c0,0-0.1,0-0.2,0c-0.1,0-0.2,0-0.3,0c-0.1,0-0.2,0-0.3,0c-0.1,0-0.1,0-0.2,0c0,0-0.1,0-0.1-0.1c0,0,0,0,0-0.1v-5
						c0-0.1,0-0.2,0.1-0.3c0.1-0.1,0.1-0.1,0.2-0.1h1.4c0.1,0,0.3,0,0.4,0c0.1,0,0.2,0,0.3,0c0.2,0,0.4,0.1,0.6,0.2
						c0.2,0.1,0.3,0.2,0.5,0.3c0.1,0.1,0.2,0.3,0.3,0.4c0.1,0.2,0.1,0.4,0.1,0.6c0,0.2,0,0.4-0.1,0.5c0,0.2-0.1,0.3-0.2,0.4
						c-0.1,0.1-0.2,0.2-0.3,0.3c-0.1,0.1-0.3,0.2-0.5,0.2c0.1,0,0.2,0.1,0.2,0.1c0.1,0.1,0.1,0.1,0.2,0.2c0.1,0.1,0.1,0.2,0.2,0.3
						c0.1,0.1,0.1,0.2,0.2,0.4l0.5,1.1c0,0.1,0.1,0.2,0.1,0.2C94,248.5,94,248.6,94,248.6z M92.6,244.8c0-0.2,0-0.3-0.1-0.5
						c-0.1-0.1-0.2-0.2-0.4-0.3c-0.1,0-0.1,0-0.2,0c-0.1,0-0.2,0-0.3,0H91v1.6h0.6c0.2,0,0.3,0,0.4-0.1c0.1,0,0.2-0.1,0.3-0.2
						c0.1-0.1,0.1-0.2,0.2-0.3C92.6,245.1,92.6,244.9,92.6,244.8z"/>
					<path class="st2" d="M98.1,248.3c0,0.1,0,0.2,0,0.2c0,0.1,0,0.1,0,0.1c0,0,0,0.1-0.1,0.1c0,0,0,0-0.1,0h-2.8
						c-0.1,0-0.2,0-0.2-0.1c-0.1-0.1-0.1-0.1-0.1-0.3v-4.8c0-0.1,0-0.2,0.1-0.3c0.1-0.1,0.1-0.1,0.2-0.1h2.8c0,0,0,0,0.1,0
						c0,0,0,0,0.1,0.1c0,0,0,0.1,0,0.1c0,0.1,0,0.1,0,0.2c0,0.1,0,0.1,0,0.2c0,0.1,0,0.1,0,0.1c0,0,0,0.1-0.1,0.1c0,0,0,0-0.1,0h-2
						v1.4h1.7c0,0,0,0,0.1,0c0,0,0,0,0.1,0.1c0,0,0,0.1,0,0.1c0,0.1,0,0.1,0,0.2c0,0.1,0,0.2,0,0.2c0,0.1,0,0.1,0,0.1
						c0,0,0,0.1-0.1,0.1c0,0,0,0-0.1,0h-1.7v1.6h2c0,0,0,0,0.1,0c0,0,0,0,0.1,0.1c0,0,0,0.1,0,0.1C98.1,248.1,98.1,248.2,98.1,248.3
						z"/>
					<path class="st2" d="M102.4,247.1c0,0.3-0.1,0.5-0.2,0.8c-0.1,0.2-0.3,0.4-0.4,0.6c-0.2,0.1-0.4,0.3-0.7,0.3
						c-0.2,0.1-0.5,0.1-0.8,0.1c-0.2,0-0.4,0-0.5,0c-0.2,0-0.3-0.1-0.4-0.1c-0.1,0-0.2-0.1-0.3-0.1c-0.1,0-0.1-0.1-0.2-0.1
						c0,0-0.1-0.1-0.1-0.2c0-0.1,0-0.2,0-0.3c0-0.1,0-0.2,0-0.2c0-0.1,0-0.1,0-0.1c0,0,0-0.1,0.1-0.1c0,0,0,0,0.1,0
						c0,0,0.1,0,0.2,0.1c0.1,0,0.2,0.1,0.3,0.2c0.1,0.1,0.3,0.1,0.4,0.2c0.2,0,0.3,0.1,0.6,0.1c0.1,0,0.3,0,0.4,0
						c0.1,0,0.2-0.1,0.3-0.1c0.1-0.1,0.1-0.1,0.2-0.2c0-0.1,0.1-0.2,0.1-0.3c0-0.1,0-0.2-0.1-0.3c-0.1-0.1-0.2-0.2-0.3-0.2
						c-0.1-0.1-0.2-0.1-0.4-0.2c-0.1-0.1-0.3-0.1-0.4-0.2c-0.2-0.1-0.3-0.1-0.4-0.2c-0.1-0.1-0.3-0.2-0.4-0.3
						c-0.1-0.1-0.2-0.3-0.3-0.4c-0.1-0.2-0.1-0.4-0.1-0.6c0-0.3,0-0.5,0.1-0.7c0.1-0.2,0.2-0.4,0.4-0.5c0.2-0.1,0.4-0.2,0.6-0.3
						c0.2-0.1,0.5-0.1,0.7-0.1c0.1,0,0.3,0,0.4,0c0.1,0,0.3,0,0.4,0.1c0.1,0,0.2,0.1,0.3,0.1c0.1,0,0.1,0.1,0.2,0.1
						c0,0,0,0.1,0.1,0.1c0,0,0,0,0,0.1c0,0,0,0.1,0,0.1c0,0.1,0,0.1,0,0.2c0,0.1,0,0.2,0,0.2c0,0.1,0,0.1,0,0.1c0,0,0,0.1,0,0.1
						c0,0,0,0-0.1,0c0,0-0.1,0-0.2-0.1c-0.1,0-0.2-0.1-0.3-0.1c-0.1,0-0.2-0.1-0.3-0.1c-0.1,0-0.3-0.1-0.4-0.1c-0.1,0-0.2,0-0.3,0
						c-0.1,0-0.2,0.1-0.2,0.1c-0.1,0.1-0.1,0.1-0.1,0.2c0,0.1,0,0.2,0,0.2c0,0.1,0,0.2,0.1,0.3c0.1,0.1,0.2,0.2,0.3,0.2
						c0.1,0.1,0.2,0.1,0.4,0.2c0.1,0.1,0.3,0.1,0.4,0.2c0.1,0.1,0.3,0.1,0.4,0.2c0.1,0.1,0.3,0.2,0.4,0.3c0.1,0.1,0.2,0.3,0.3,0.4
						C102.3,246.7,102.4,246.9,102.4,247.1z"/>
					<path class="st2" d="M106.5,248.3c0,0.1,0,0.2,0,0.2c0,0.1,0,0.1,0,0.1c0,0,0,0.1-0.1,0.1c0,0,0,0-0.1,0h-2.8
						c-0.1,0-0.2,0-0.2-0.1c-0.1-0.1-0.1-0.1-0.1-0.3v-4.8c0-0.1,0-0.2,0.1-0.3c0.1-0.1,0.1-0.1,0.2-0.1h2.8c0,0,0,0,0.1,0
						c0,0,0,0,0.1,0.1c0,0,0,0.1,0,0.1c0,0.1,0,0.1,0,0.2c0,0.1,0,0.1,0,0.2c0,0.1,0,0.1,0,0.1c0,0,0,0.1-0.1,0.1c0,0,0,0-0.1,0h-2
						v1.4h1.7c0,0,0,0,0.1,0c0,0,0,0,0.1,0.1c0,0,0,0.1,0,0.1c0,0.1,0,0.1,0,0.2c0,0.1,0,0.2,0,0.2c0,0.1,0,0.1,0,0.1
						c0,0,0,0.1-0.1,0.1c0,0,0,0-0.1,0h-1.7v1.6h2c0,0,0,0,0.1,0c0,0,0,0,0.1,0.1c0,0,0,0.1,0,0.1
						C106.5,248.1,106.5,248.2,106.5,248.3z"/>
					<path class="st2" d="M112,248.3c0,0.1,0.1,0.2,0.1,0.2c0,0.1,0,0.1,0,0.1c0,0-0.1,0-0.2,0.1c-0.1,0-0.2,0-0.3,0
						c-0.1,0-0.3,0-0.3,0c-0.1,0-0.1,0-0.2,0c0,0-0.1,0-0.1-0.1c0,0,0-0.1,0-0.1l-0.4-1.1h-2.1l-0.4,1.1c0,0,0,0.1,0,0.1
						c0,0,0,0-0.1,0.1c0,0-0.1,0-0.2,0c-0.1,0-0.2,0-0.3,0c-0.1,0-0.2,0-0.3,0c-0.1,0-0.1,0-0.2-0.1c0,0,0-0.1,0-0.1
						c0-0.1,0-0.1,0.1-0.2l1.7-4.9c0,0,0-0.1,0.1-0.1c0,0,0.1-0.1,0.1-0.1c0,0,0.1,0,0.2,0c0.1,0,0.2,0,0.4,0c0.2,0,0.3,0,0.4,0
						c0.1,0,0.2,0,0.2,0c0.1,0,0.1,0,0.1,0.1c0,0,0,0.1,0.1,0.1L112,248.3z M109.4,244.2L109.4,244.2l-0.8,2.4h1.6L109.4,244.2z"/>
					<path class="st2" d="M116.8,248.6C116.8,248.6,116.8,248.7,116.8,248.6c0,0.1-0.1,0.1-0.1,0.1c0,0-0.1,0-0.2,0
						c-0.1,0-0.2,0-0.3,0c-0.1,0-0.2,0-0.3,0c-0.1,0-0.1,0-0.2,0c0,0-0.1,0-0.1-0.1c0,0,0-0.1,0-0.1l-0.5-1.2
						c-0.1-0.1-0.1-0.3-0.2-0.4c-0.1-0.1-0.1-0.2-0.2-0.3c-0.1-0.1-0.2-0.1-0.2-0.2c-0.1,0-0.2-0.1-0.3-0.1h-0.4v2.1
						c0,0,0,0.1,0,0.1c0,0,0,0-0.1,0.1c0,0-0.1,0-0.2,0c-0.1,0-0.2,0-0.3,0c-0.1,0-0.2,0-0.3,0c-0.1,0-0.1,0-0.2,0
						c0,0-0.1,0-0.1-0.1c0,0,0,0,0-0.1v-5c0-0.1,0-0.2,0.1-0.3c0.1-0.1,0.1-0.1,0.2-0.1h1.4c0.1,0,0.3,0,0.4,0c0.1,0,0.2,0,0.3,0
						c0.2,0,0.4,0.1,0.6,0.2c0.2,0.1,0.3,0.2,0.5,0.3c0.1,0.1,0.2,0.3,0.3,0.4c0.1,0.2,0.1,0.4,0.1,0.6c0,0.2,0,0.4-0.1,0.5
						c0,0.2-0.1,0.3-0.2,0.4c-0.1,0.1-0.2,0.2-0.3,0.3c-0.1,0.1-0.3,0.2-0.5,0.2c0.1,0,0.2,0.1,0.2,0.1c0.1,0.1,0.1,0.1,0.2,0.2
						c0.1,0.1,0.1,0.2,0.2,0.3c0.1,0.1,0.1,0.2,0.2,0.4l0.5,1.1c0,0.1,0.1,0.2,0.1,0.2C116.8,248.5,116.8,248.6,116.8,248.6z
						 M115.4,244.8c0-0.2,0-0.3-0.1-0.5c-0.1-0.1-0.2-0.2-0.4-0.3c-0.1,0-0.1,0-0.2,0c-0.1,0-0.2,0-0.3,0h-0.5v1.6h0.6
						c0.2,0,0.3,0,0.4-0.1c0.1,0,0.2-0.1,0.3-0.2c0.1-0.1,0.1-0.2,0.2-0.3C115.4,245.1,115.4,244.9,115.4,244.8z"/>
					<path class="st2" d="M121.5,247.9c0,0.1,0,0.1,0,0.2c0,0.1,0,0.1,0,0.1c0,0,0,0.1,0,0.1c0,0,0,0.1-0.1,0.1c0,0-0.1,0.1-0.2,0.1
						c-0.1,0.1-0.2,0.1-0.3,0.1c-0.1,0-0.3,0.1-0.4,0.1c-0.2,0-0.4,0-0.5,0c-0.4,0-0.7-0.1-1-0.2c-0.3-0.1-0.6-0.3-0.8-0.5
						c-0.2-0.2-0.4-0.5-0.5-0.9c-0.1-0.3-0.2-0.8-0.2-1.2c0-0.5,0.1-0.9,0.2-1.3c0.1-0.4,0.3-0.7,0.5-0.9c0.2-0.2,0.5-0.4,0.8-0.6
						c0.3-0.1,0.7-0.2,1-0.2c0.2,0,0.3,0,0.4,0c0.1,0,0.3,0.1,0.4,0.1c0.1,0,0.2,0.1,0.3,0.1c0.1,0.1,0.2,0.1,0.2,0.1
						c0,0,0.1,0.1,0.1,0.1c0,0,0,0.1,0,0.1c0,0,0,0.1,0,0.1c0,0.1,0,0.1,0,0.2c0,0.1,0,0.2,0,0.2c0,0.1,0,0.1,0,0.1
						c0,0,0,0.1-0.1,0.1c0,0,0,0-0.1,0c0,0-0.1,0-0.2-0.1c-0.1-0.1-0.2-0.1-0.3-0.2c-0.1-0.1-0.2-0.1-0.4-0.2
						c-0.1-0.1-0.3-0.1-0.5-0.1c-0.2,0-0.4,0-0.6,0.1c-0.2,0.1-0.3,0.2-0.4,0.4c-0.1,0.2-0.2,0.4-0.3,0.6c-0.1,0.2-0.1,0.5-0.1,0.8
						c0,0.3,0,0.6,0.1,0.8c0.1,0.2,0.2,0.4,0.3,0.6c0.1,0.2,0.3,0.3,0.5,0.3c0.2,0.1,0.4,0.1,0.6,0.1c0.2,0,0.4,0,0.5-0.1
						c0.1,0,0.3-0.1,0.4-0.2c0.1-0.1,0.2-0.1,0.3-0.2c0.1,0,0.1-0.1,0.2-0.1c0,0,0.1,0,0.1,0c0,0,0,0,0,0.1c0,0,0,0.1,0,0.1
						C121.5,247.7,121.5,247.8,121.5,247.9z"/>
					<path class="st2" d="M126.6,248.6C126.6,248.6,126.6,248.6,126.6,248.6c0,0.1-0.1,0.1-0.1,0.1c0,0-0.1,0-0.2,0
						c-0.1,0-0.2,0-0.3,0c-0.1,0-0.2,0-0.3,0c-0.1,0-0.1,0-0.2,0c0,0-0.1,0-0.1-0.1c0,0,0,0,0-0.1v-2.2h-2.1v2.2c0,0,0,0.1,0,0.1
						c0,0,0,0-0.1,0.1c0,0-0.1,0-0.2,0c-0.1,0-0.2,0-0.3,0c-0.1,0-0.2,0-0.3,0c-0.1,0-0.1,0-0.2,0c0,0-0.1,0-0.1-0.1c0,0,0,0,0-0.1
						v-5.3c0,0,0-0.1,0-0.1c0,0,0,0,0.1-0.1c0,0,0.1,0,0.2,0c0.1,0,0.2,0,0.3,0c0.1,0,0.2,0,0.3,0c0.1,0,0.1,0,0.2,0
						c0,0,0.1,0,0.1,0.1c0,0,0,0,0,0.1v2h2.1v-2c0,0,0-0.1,0-0.1c0,0,0,0,0.1-0.1c0,0,0.1,0,0.2,0c0.1,0,0.2,0,0.3,0
						c0.1,0,0.2,0,0.3,0c0.1,0,0.1,0,0.2,0c0,0,0.1,0,0.1,0.1c0,0,0,0,0,0.1V248.6z"/>
				</g>
			</g>
			<rect x="68.3" y="225.9" class="st2" width="34.4" height="1.1"/>
		</g>
	</g>
</g>
</svg>
